<svg xmlns="http://www.w3.org/2000/svg" xmlns:xlink="http://www.w3.org/1999/xlink" width="150" zoomAndPan="magnify" viewBox="0 0 112.5 37.5" height="50" preserveAspectRatio="xMidYMid meet" version="1.0"><defs><g/><clipPath id="b6a1d6f6fe"><path d="M 0.492188 0 L 111.511719 0 L 111.511719 37.007812 L 0.492188 37.007812 Z M 0.492188 0 " clip-rule="nonzero"/></clipPath><clipPath id="402e0dff97"><path d="M 21.429688 9 L 28.832031 9 L 28.832031 19.1875 L 21.429688 19.1875 Z M 21.429688 9 " clip-rule="nonzero"/></clipPath><clipPath id="96e10ec656"><path d="M 25.023438 9.160156 C 27.125 9.160156 28.832031 10.867188 28.832031 12.96875 L 28.832031 18.242188 C 28.832031 18.765625 28.410156 19.1875 27.890625 19.1875 C 27.367188 19.1875 26.945312 18.765625 26.945312 18.242188 L 26.945312 12.96875 C 26.945312 11.910156 26.082031 11.042969 25.023438 11.042969 C 23.960938 11.042969 23.097656 11.910156 23.097656 12.96875 L 23.097656 18.242188 C 23.097656 18.765625 22.675781 19.1875 22.15625 19.1875 C 21.632812 19.1875 21.210938 18.765625 21.210938 18.242188 L 21.210938 12.96875 C 21.214844 10.867188 22.921875 9.160156 25.023438 9.160156 Z M 25.023438 9.160156 " clip-rule="nonzero"/></clipPath><clipPath id="2f91ea48ea"><path d="M 27.210938 9 L 34.613281 9 L 34.613281 19.1875 L 27.210938 19.1875 Z M 27.210938 9 " clip-rule="nonzero"/></clipPath><clipPath id="d2497c4037"><path d="M 30.800781 9.160156 C 32.902344 9.160156 34.613281 10.867188 34.613281 12.96875 L 34.613281 18.242188 C 34.613281 18.765625 34.191406 19.1875 33.671875 19.1875 C 33.148438 19.1875 32.726562 18.765625 32.726562 18.242188 L 32.726562 12.96875 C 32.726562 11.910156 31.863281 11.042969 30.800781 11.042969 C 29.742188 11.042969 28.878906 11.910156 28.878906 12.96875 L 28.878906 18.242188 C 28.878906 18.765625 28.457031 19.1875 27.933594 19.1875 C 27.414062 19.1875 26.992188 18.765625 26.992188 18.242188 L 26.992188 12.96875 C 26.996094 10.867188 28.703125 9.160156 30.800781 9.160156 Z M 30.800781 9.160156 " clip-rule="nonzero"/></clipPath><clipPath id="9c0ab2de5f"><path d="M 35.324219 9.160156 L 44.945312 9.160156 L 44.945312 19.519531 L 35.324219 19.519531 Z M 35.324219 9.160156 " clip-rule="nonzero"/></clipPath><clipPath id="e04bb61495"><path d="M 51.464844 5.214844 L 52.945312 5.214844 L 52.945312 17 L 51.464844 17 Z M 51.464844 5.214844 " clip-rule="nonzero"/></clipPath><clipPath id="7954c7ad7b"><path d="M 45.414062 9.164062 L 52.816406 9.164062 L 52.816406 19.265625 L 45.414062 19.265625 Z M 45.414062 9.164062 " clip-rule="nonzero"/></clipPath><clipPath id="1a7b8b9f44"><path d="M 49.113281 9.164062 L 49.246094 9.164062 C 50.226562 9.164062 51.167969 9.554688 51.859375 10.246094 C 52.554688 10.941406 52.945312 11.878906 52.945312 12.859375 L 52.945312 15.484375 C 52.945312 16.464844 52.554688 17.40625 51.859375 18.097656 C 51.167969 18.792969 50.226562 19.179688 49.246094 19.179688 L 49.113281 19.179688 C 48.132812 19.179688 47.191406 18.792969 46.496094 18.097656 C 45.804688 17.40625 45.414062 16.464844 45.414062 15.484375 L 45.414062 12.859375 C 45.414062 11.878906 45.804688 10.941406 46.496094 10.246094 C 47.191406 9.554688 48.132812 9.164062 49.113281 9.164062 Z M 49.113281 9.164062 " clip-rule="nonzero"/></clipPath><clipPath id="3d85937852"><path d="M 71.902344 9.160156 L 74.066406 9.160156 L 74.066406 19.191406 L 71.902344 19.191406 Z M 71.902344 9.160156 " clip-rule="nonzero"/></clipPath><clipPath id="b5b0125d06"><path d="M 72.984375 9.160156 C 73.273438 9.160156 73.546875 9.273438 73.75 9.476562 C 73.953125 9.679688 74.066406 9.953125 74.066406 10.242188 L 74.066406 18.105469 C 74.066406 18.394531 73.953125 18.667969 73.75 18.871094 C 73.546875 19.074219 73.273438 19.1875 72.984375 19.1875 C 72.699219 19.1875 72.421875 19.074219 72.222656 18.871094 C 72.019531 18.667969 71.902344 18.394531 71.902344 18.105469 L 71.902344 10.242188 C 71.902344 9.953125 72.019531 9.679688 72.222656 9.476562 C 72.421875 9.273438 72.699219 9.160156 72.984375 9.160156 Z M 72.984375 9.160156 " clip-rule="nonzero"/></clipPath><clipPath id="38468fbfdc"><path d="M 71.917969 6.296875 L 74.066406 6.296875 L 74.066406 8.445312 L 71.917969 8.445312 Z M 71.917969 6.296875 " clip-rule="nonzero"/></clipPath><clipPath id="405cf7f52b"><path d="M 72.992188 6.296875 C 72.398438 6.296875 71.917969 6.777344 71.917969 7.371094 C 71.917969 7.964844 72.398438 8.445312 72.992188 8.445312 C 73.585938 8.445312 74.066406 7.964844 74.066406 7.371094 C 74.066406 6.777344 73.585938 6.296875 72.992188 6.296875 Z M 72.992188 6.296875 " clip-rule="nonzero"/></clipPath><clipPath id="6647184db4"><path d="M 74.707031 9.160156 L 82.109375 9.160156 L 82.109375 19.519531 L 74.707031 19.519531 Z M 74.707031 9.160156 " clip-rule="nonzero"/></clipPath><clipPath id="00fde835ec"><path d="M 83.046875 9.160156 L 90.449219 9.160156 L 90.449219 19.519531 L 83.046875 19.519531 Z M 83.046875 9.160156 " clip-rule="nonzero"/></clipPath><clipPath id="1fd58acf1f"><path d="M 72.261719 21.621094 L 88.226562 21.621094 L 88.226562 23.777344 L 72.261719 23.777344 Z M 72.261719 21.621094 " clip-rule="nonzero"/></clipPath><clipPath id="35b67a4d9d"><path d="M 72.261719 22.699219 C 72.261719 22.101562 72.742188 21.621094 73.339844 21.621094 L 87.140625 21.621094 C 87.738281 21.621094 88.21875 22.101562 88.21875 22.699219 C 88.21875 23.292969 87.738281 23.777344 87.140625 23.777344 L 73.339844 23.777344 C 72.742188 23.777344 72.261719 23.292969 72.261719 22.699219 Z M 72.261719 22.699219 " clip-rule="nonzero"/></clipPath><clipPath id="355185997c"><path d="M 71.917969 21.617188 L 76.933594 21.617188 L 76.933594 23.773438 L 71.917969 23.773438 Z M 71.917969 21.617188 " clip-rule="nonzero"/></clipPath><clipPath id="2cbb89e476"><path d="M 71.917969 22.695312 C 71.917969 22.101562 72.402344 21.617188 72.996094 21.617188 L 75.851562 21.617188 C 76.449219 21.617188 76.933594 22.101562 76.933594 22.695312 C 76.933594 23.292969 76.449219 23.773438 75.851562 23.773438 L 72.996094 23.773438 C 72.402344 23.773438 71.917969 23.292969 71.917969 22.695312 Z M 71.917969 22.695312 " clip-rule="nonzero"/></clipPath><clipPath id="246cb4dc5b"><path d="M 54 9 L 63 9 L 63 20 L 54 20 Z M 54 9 " clip-rule="nonzero"/></clipPath><clipPath id="22bc2f9a1f"><path d="M 58.660156 7.089844 L 66.460938 13.910156 L 59.640625 21.710938 L 51.839844 14.890625 Z M 58.660156 7.089844 " clip-rule="nonzero"/></clipPath><clipPath id="c79f3c30f5"><path d="M 58.660156 7.089844 L 66.460938 13.910156 L 59.640625 21.710938 L 51.839844 14.890625 Z M 58.660156 7.089844 " clip-rule="nonzero"/></clipPath></defs><g clip-path="url(#b6a1d6f6fe)"><path fill="#ffffff" d="M 0.492188 0 L 111.511719 0 L 111.511719 37.007812 L 0.492188 37.007812 Z M 0.492188 0 " fill-opacity="1" fill-rule="nonzero"/><path fill="#000000" d="M 0.492188 0 L 111.511719 0 L 111.511719 37.007812 L 0.492188 37.007812 Z M 0.492188 0 " fill-opacity="1" fill-rule="nonzero"/></g><g clip-path="url(#402e0dff97)"><g clip-path="url(#96e10ec656)"><path fill="#0c5afd" d="M 28.832031 19.1875 L 28.832031 9.160156 L 21.429688 9.160156 L 21.429688 19.1875 Z M 28.832031 19.1875 " fill-opacity="1" fill-rule="nonzero"/></g></g><g clip-path="url(#2f91ea48ea)"><g clip-path="url(#d2497c4037)"><path fill="#0c5afd" d="M 34.613281 19.1875 L 34.613281 9.160156 L 27.210938 9.160156 L 27.210938 19.1875 Z M 34.613281 19.1875 " fill-opacity="1" fill-rule="nonzero"/></g></g><g clip-path="url(#9c0ab2de5f)"><path fill="#0c5afd" d="M 40.046875 19.183594 C 37.445312 19.183594 35.324219 16.933594 35.324219 14.175781 C 35.324219 11.417969 37.445312 9.164062 40.046875 9.164062 C 42.433594 9.164062 44.445312 11.054688 44.742188 13.554688 C 44.773438 13.816406 44.695312 14.078125 44.527344 14.277344 C 44.363281 14.476562 44.125 14.59375 43.875 14.59375 L 37.09375 14.59375 C 37.285156 16.136719 38.542969 17.335938 40.046875 17.335938 C 40.953125 17.335938 41.792969 16.914062 42.363281 16.167969 C 42.664062 15.773438 43.214844 15.714844 43.585938 16.035156 C 43.957031 16.355469 44.015625 16.9375 43.714844 17.335938 C 42.8125 18.507812 41.476562 19.183594 40.046875 19.183594 Z M 37.386719 12.746094 L 42.714844 12.746094 C 42.222656 11.707031 41.203125 11.007812 40.046875 11.007812 C 38.886719 11.007812 37.882812 11.714844 37.386719 12.746094 Z M 37.386719 12.746094 " fill-opacity="1" fill-rule="nonzero"/></g><g clip-path="url(#e04bb61495)"><path fill="#0c5afd" d="M 52.945312 5.972656 L 52.945312 16.113281 C 52.945312 16.3125 52.875 16.484375 52.734375 16.628906 C 52.59375 16.769531 52.421875 16.839844 52.21875 16.839844 L 51.878906 16.839844 C 51.679688 16.839844 51.507812 16.769531 51.367188 16.628906 C 51.226562 16.484375 51.152344 16.3125 51.152344 16.113281 L 51.152344 5.972656 C 51.152344 5.769531 51.226562 5.597656 51.367188 5.457031 C 51.507812 5.316406 51.679688 5.246094 51.878906 5.246094 L 52.21875 5.246094 C 52.421875 5.246094 52.59375 5.316406 52.734375 5.457031 C 52.875 5.597656 52.945312 5.769531 52.945312 5.972656 Z M 52.945312 5.972656 " fill-opacity="1" fill-rule="nonzero"/></g><g clip-path="url(#7954c7ad7b)"><g clip-path="url(#1a7b8b9f44)"><path stroke-linecap="butt" transform="matrix(0.740132, 0, 0, 0.740132, 45.415185, 9.164931)" fill="none" stroke-linejoin="miter" d="M 4.996538 -0.00117351 L 5.175983 -0.00117351 C 6.500705 -0.00117351 7.772649 0.526604 8.706816 1.460771 C 9.64626 2.400215 10.174038 3.666882 10.174038 4.991604 L 10.174038 8.538271 C 10.174038 9.862993 9.64626 11.134937 8.706816 12.069104 C 7.772649 13.008548 6.500705 13.531048 5.175983 13.531048 L 4.996538 13.531048 C 3.671816 13.531048 2.399872 13.008548 1.460427 12.069104 C 0.52626 11.134937 -0.00151729 9.862993 -0.00151729 8.538271 L -0.00151729 4.991604 C -0.00151729 3.666882 0.52626 2.400215 1.460427 1.460771 C 2.399872 0.526604 3.671816 -0.00117351 4.996538 -0.00117351 Z M 4.996538 -0.00117351 " stroke="#0c5afd" stroke-width="4" stroke-opacity="1" stroke-miterlimit="4"/></g></g><g clip-path="url(#3d85937852)"><g clip-path="url(#b5b0125d06)"><path fill="#ffffff" d="M 71.902344 9.160156 L 74.066406 9.160156 L 74.066406 19.191406 L 71.902344 19.191406 Z M 71.902344 9.160156 " fill-opacity="1" fill-rule="nonzero"/></g></g><g clip-path="url(#38468fbfdc)"><g clip-path="url(#405cf7f52b)"><path fill="#00bf63" d="M 71.917969 6.296875 L 74.066406 6.296875 L 74.066406 8.445312 L 71.917969 8.445312 Z M 71.917969 6.296875 " fill-opacity="1" fill-rule="nonzero"/></g></g><g clip-path="url(#6647184db4)"><path fill="#ffffff" d="M 82.398438 10.746094 C 82.425781 10.707031 82.441406 10.660156 82.441406 10.613281 L 82.441406 9.394531 C 82.441406 9.269531 82.339844 9.167969 82.214844 9.167969 L 75.160156 9.167969 C 75.035156 9.167969 74.933594 9.269531 74.933594 9.394531 L 74.933594 10.757812 C 74.933594 10.886719 75.035156 10.988281 75.160156 10.988281 L 79.941406 10.988281 L 74.75 17.597656 C 74.722656 17.636719 74.707031 17.683594 74.707031 17.734375 L 74.707031 18.953125 C 74.707031 19.078125 74.808594 19.179688 74.933594 19.179688 L 82.214844 19.179688 C 82.339844 19.179688 82.441406 19.078125 82.441406 18.953125 L 82.441406 17.585938 C 82.441406 17.460938 82.339844 17.359375 82.214844 17.359375 L 77.4375 17.359375 Z M 82.398438 10.746094 " fill-opacity="1" fill-rule="nonzero"/></g><g clip-path="url(#00fde835ec)"><path fill="#ffffff" d="M 90.738281 10.746094 C 90.769531 10.707031 90.785156 10.660156 90.785156 10.613281 L 90.785156 9.394531 C 90.785156 9.269531 90.683594 9.167969 90.558594 9.167969 L 83.503906 9.167969 C 83.378906 9.167969 83.277344 9.269531 83.277344 9.394531 L 83.277344 10.757812 C 83.277344 10.886719 83.378906 10.988281 83.503906 10.988281 L 88.28125 10.988281 L 83.09375 17.597656 C 83.0625 17.636719 83.046875 17.683594 83.046875 17.734375 L 83.046875 18.953125 C 83.046875 19.078125 83.152344 19.179688 83.277344 19.179688 L 90.558594 19.179688 C 90.683594 19.179688 90.785156 19.078125 90.785156 18.953125 L 90.785156 17.585938 C 90.785156 17.460938 90.683594 17.359375 90.558594 17.359375 L 85.777344 17.359375 Z M 90.738281 10.746094 " fill-opacity="1" fill-rule="nonzero"/></g><g clip-path="url(#1fd58acf1f)"><g clip-path="url(#35b67a4d9d)"><path fill="#ffffff" d="M 72.261719 23.777344 L 72.261719 21.621094 L 88.21875 21.621094 L 88.21875 23.777344 Z M 72.261719 23.777344 " fill-opacity="1" fill-rule="nonzero"/></g></g><g clip-path="url(#355185997c)"><g clip-path="url(#2cbb89e476)"><path fill="#00bf63" d="M 71.917969 23.773438 L 71.917969 21.617188 L 76.933594 21.617188 L 76.933594 23.773438 Z M 71.917969 23.773438 " fill-opacity="1" fill-rule="nonzero"/></g></g><g clip-path="url(#246cb4dc5b)"><g clip-path="url(#22bc2f9a1f)"><g clip-path="url(#c79f3c30f5)"><path fill="#ffffff" d="M 61.253906 15.851562 L 61.171875 15.949219 C 60.191406 17.070312 58.480469 17.183594 57.355469 16.203125 C 56.234375 15.222656 56.121094 13.515625 57.101562 12.394531 C 58.082031 11.273438 59.792969 11.160156 60.914062 12.136719 L 61.007812 12.222656 L 62.535156 10.480469 L 62.4375 10.394531 C 60.355469 8.574219 57.179688 8.785156 55.355469 10.871094 C 53.535156 12.953125 53.75 16.128906 55.832031 17.949219 C 57.917969 19.769531 61.09375 19.558594 62.914062 17.472656 L 63 17.375 L 61.253906 15.851562 " fill-opacity="1" fill-rule="nonzero"/></g></g></g><g fill="#ffffff" fill-opacity="1"><g transform="translate(21.622898, 31.519951)"><g><path d="M 0 -2.3125 L 0 -1.15625 C 0 -0.945312 0.0507812 -0.753906 0.15625 -0.578125 C 0.257812 -0.398438 0.398438 -0.257812 0.578125 -0.15625 C 0.753906 -0.0507812 0.945312 0 1.15625 0 C 1.351562 0 1.53125 -0.0390625 1.6875 -0.125 C 1.851562 -0.21875 1.988281 -0.332031 2.09375 -0.46875 C 2.195312 -0.332031 2.328125 -0.21875 2.484375 -0.125 C 2.648438 -0.0390625 2.832031 0 3.03125 0 C 3.238281 0 3.429688 -0.0507812 3.609375 -0.15625 C 3.785156 -0.257812 3.925781 -0.398438 4.03125 -0.578125 C 4.132812 -0.753906 4.1875 -0.945312 4.1875 -1.15625 L 4.1875 -2.3125 L 3.734375 -2.3125 L 3.734375 -1.15625 C 3.734375 -1.03125 3.703125 -0.910156 3.640625 -0.796875 C 3.578125 -0.691406 3.488281 -0.609375 3.375 -0.546875 C 3.269531 -0.484375 3.15625 -0.453125 3.03125 -0.453125 C 2.894531 -0.453125 2.769531 -0.484375 2.65625 -0.546875 C 2.550781 -0.609375 2.46875 -0.691406 2.40625 -0.796875 C 2.34375 -0.910156 2.3125 -1.03125 2.3125 -1.15625 L 2.3125 -2.3125 L 1.875 -2.3125 L 1.875 -1.15625 C 1.875 -1.03125 1.835938 -0.910156 1.765625 -0.796875 C 1.703125 -0.691406 1.617188 -0.609375 1.515625 -0.546875 C 1.410156 -0.484375 1.289062 -0.453125 1.15625 -0.453125 C 1.03125 -0.453125 0.910156 -0.484375 0.796875 -0.546875 C 0.691406 -0.609375 0.609375 -0.691406 0.546875 -0.796875 C 0.484375 -0.910156 0.453125 -1.03125 0.453125 -1.15625 L 0.453125 -2.3125 Z M 0 -2.3125 "/></g></g></g><g fill="#ffffff" fill-opacity="1"><g transform="translate(26.635534, 31.519951)"><g><path d="M 0 -3.640625 L 0 0 L 0.453125 0 L 0.453125 -1.15625 C 0.453125 -1.289062 0.484375 -1.410156 0.546875 -1.515625 C 0.609375 -1.617188 0.691406 -1.703125 0.796875 -1.765625 C 0.910156 -1.835938 1.03125 -1.875 1.15625 -1.875 C 1.289062 -1.875 1.410156 -1.835938 1.515625 -1.765625 C 1.617188 -1.703125 1.703125 -1.617188 1.765625 -1.515625 C 1.835938 -1.410156 1.875 -1.289062 1.875 -1.15625 L 1.875 0 L 2.3125 0 L 2.3125 -1.15625 C 2.3125 -1.363281 2.257812 -1.554688 2.15625 -1.734375 C 2.050781 -1.910156 1.910156 -2.050781 1.734375 -2.15625 C 1.554688 -2.257812 1.363281 -2.3125 1.15625 -2.3125 C 1.019531 -2.3125 0.890625 -2.289062 0.765625 -2.25 C 0.648438 -2.207031 0.546875 -2.148438 0.453125 -2.078125 L 0.453125 -3.640625 Z M 0 -3.640625 "/></g></g></g><g fill="#ffffff" fill-opacity="1"><g transform="translate(29.778852, 31.519951)"><g><path d="M 1.15625 -2.3125 C 0.96875 -2.3125 0.789062 -2.269531 0.625 -2.1875 C 0.46875 -2.101562 0.332031 -1.988281 0.21875 -1.84375 C 0.113281 -1.695312 0.046875 -1.53125 0.015625 -1.34375 C 0.00390625 -1.28125 0 -1.21875 0 -1.15625 C 0 -1.101562 0.00390625 -1.046875 0.015625 -0.984375 C 0.015625 -0.953125 0.0195312 -0.925781 0.03125 -0.90625 C 0.0703125 -0.726562 0.144531 -0.570312 0.25 -0.4375 C 0.363281 -0.300781 0.5 -0.191406 0.65625 -0.109375 C 0.8125 -0.0351562 0.976562 0 1.15625 0 C 1.289062 0 1.414062 -0.0195312 1.53125 -0.0625 C 1.65625 -0.101562 1.765625 -0.160156 1.859375 -0.234375 L 1.53125 -0.5625 C 1.414062 -0.488281 1.289062 -0.453125 1.15625 -0.453125 C 1.007812 -0.453125 0.875 -0.492188 0.75 -0.578125 C 0.632812 -0.660156 0.550781 -0.769531 0.5 -0.90625 L 2.296875 -0.90625 C 2.304688 -0.988281 2.3125 -1.070312 2.3125 -1.15625 C 2.3125 -1.21875 2.304688 -1.28125 2.296875 -1.34375 C 2.265625 -1.53125 2.191406 -1.695312 2.078125 -1.84375 C 1.972656 -1.988281 1.84375 -2.101562 1.6875 -2.1875 C 1.53125 -2.269531 1.351562 -2.3125 1.15625 -2.3125 Z M 1.15625 -1.875 C 1.320312 -1.875 1.46875 -1.820312 1.59375 -1.71875 C 1.71875 -1.625 1.800781 -1.5 1.84375 -1.34375 L 0.46875 -1.34375 C 0.519531 -1.5 0.609375 -1.625 0.734375 -1.71875 C 0.859375 -1.820312 1 -1.875 1.15625 -1.875 Z M 1.15625 -1.875 "/></g></g></g><g fill="#ffffff" fill-opacity="1"><g transform="translate(32.803105, 31.519951)"><g><path d="M 0 -2.3125 L 0 0 L 0.453125 0 L 0.453125 -1.15625 C 0.453125 -1.289062 0.484375 -1.410156 0.546875 -1.515625 C 0.609375 -1.617188 0.691406 -1.703125 0.796875 -1.765625 C 0.910156 -1.835938 1.03125 -1.875 1.15625 -1.875 C 1.257812 -1.875 1.359375 -1.847656 1.453125 -1.796875 L 1.78125 -2.140625 C 1.59375 -2.253906 1.382812 -2.3125 1.15625 -2.3125 C 1.019531 -2.3125 0.890625 -2.289062 0.765625 -2.25 C 0.648438 -2.207031 0.546875 -2.148438 0.453125 -2.078125 L 0.453125 -2.3125 Z M 0 -2.3125 "/></g></g></g><g fill="#ffffff" fill-opacity="1"><g transform="translate(35.226079, 31.519951)"><g><path d="M 1.15625 -2.3125 C 0.96875 -2.3125 0.789062 -2.269531 0.625 -2.1875 C 0.46875 -2.101562 0.332031 -1.988281 0.21875 -1.84375 C 0.113281 -1.695312 0.046875 -1.53125 0.015625 -1.34375 C 0.00390625 -1.28125 0 -1.21875 0 -1.15625 C 0 -1.101562 0.00390625 -1.046875 0.015625 -0.984375 C 0.015625 -0.953125 0.0195312 -0.925781 0.03125 -0.90625 C 0.0703125 -0.726562 0.144531 -0.570312 0.25 -0.4375 C 0.363281 -0.300781 0.5 -0.191406 0.65625 -0.109375 C 0.8125 -0.0351562 0.976562 0 1.15625 0 C 1.289062 0 1.414062 -0.0195312 1.53125 -0.0625 C 1.65625 -0.101562 1.765625 -0.160156 1.859375 -0.234375 L 1.53125 -0.5625 C 1.414062 -0.488281 1.289062 -0.453125 1.15625 -0.453125 C 1.007812 -0.453125 0.875 -0.492188 0.75 -0.578125 C 0.632812 -0.660156 0.550781 -0.769531 0.5 -0.90625 L 2.296875 -0.90625 C 2.304688 -0.988281 2.3125 -1.070312 2.3125 -1.15625 C 2.3125 -1.21875 2.304688 -1.28125 2.296875 -1.34375 C 2.265625 -1.53125 2.191406 -1.695312 2.078125 -1.84375 C 1.972656 -1.988281 1.84375 -2.101562 1.6875 -2.1875 C 1.53125 -2.269531 1.351562 -2.3125 1.15625 -2.3125 Z M 1.15625 -1.875 C 1.320312 -1.875 1.46875 -1.820312 1.59375 -1.71875 C 1.71875 -1.625 1.800781 -1.5 1.84375 -1.34375 L 0.46875 -1.34375 C 0.519531 -1.5 0.609375 -1.625 0.734375 -1.71875 C 0.859375 -1.820312 1 -1.875 1.15625 -1.875 Z M 1.15625 -1.875 "/></g></g></g><g fill="#ffffff" fill-opacity="1"><g transform="translate(38.25033, 31.519951)"><g/></g></g><g fill="#ffffff" fill-opacity="1"><g transform="translate(39.67316, 31.519951)"><g><path d="M 0 0 L 0 -1.15625 C 0 -1.363281 0.0507812 -1.554688 0.15625 -1.734375 C 0.257812 -1.910156 0.398438 -2.050781 0.578125 -2.15625 C 0.753906 -2.257812 0.945312 -2.3125 1.15625 -2.3125 C 1.351562 -2.3125 1.53125 -2.269531 1.6875 -2.1875 C 1.851562 -2.101562 1.988281 -1.988281 2.09375 -1.84375 C 2.195312 -1.988281 2.328125 -2.101562 2.484375 -2.1875 C 2.648438 -2.269531 2.832031 -2.3125 3.03125 -2.3125 C 3.238281 -2.3125 3.429688 -2.257812 3.609375 -2.15625 C 3.785156 -2.050781 3.925781 -1.910156 4.03125 -1.734375 C 4.132812 -1.554688 4.1875 -1.363281 4.1875 -1.15625 L 4.1875 0 L 3.734375 0 L 3.734375 -1.15625 C 3.734375 -1.289062 3.703125 -1.410156 3.640625 -1.515625 C 3.578125 -1.617188 3.488281 -1.703125 3.375 -1.765625 C 3.269531 -1.835938 3.15625 -1.875 3.03125 -1.875 C 2.894531 -1.875 2.769531 -1.835938 2.65625 -1.765625 C 2.550781 -1.703125 2.46875 -1.617188 2.40625 -1.515625 C 2.34375 -1.410156 2.3125 -1.289062 2.3125 -1.15625 L 2.3125 0 L 1.875 0 L 1.875 -1.15625 C 1.875 -1.289062 1.835938 -1.410156 1.765625 -1.515625 C 1.703125 -1.617188 1.617188 -1.703125 1.515625 -1.765625 C 1.410156 -1.835938 1.289062 -1.875 1.15625 -1.875 C 1.03125 -1.875 0.910156 -1.835938 0.796875 -1.765625 C 0.691406 -1.703125 0.609375 -1.617188 0.546875 -1.515625 C 0.484375 -1.410156 0.453125 -1.289062 0.453125 -1.15625 L 0.453125 0 Z M 0 0 "/></g></g></g><g fill="#ffffff" fill-opacity="1"><g transform="translate(44.685796, 31.519951)"><g><path d="M 1.15625 -2.3125 C 0.96875 -2.3125 0.789062 -2.269531 0.625 -2.1875 C 0.46875 -2.101562 0.332031 -1.988281 0.21875 -1.84375 C 0.113281 -1.695312 0.046875 -1.53125 0.015625 -1.34375 C 0.00390625 -1.28125 0 -1.21875 0 -1.15625 C 0 -1.101562 0.00390625 -1.046875 0.015625 -0.984375 C 0.015625 -0.953125 0.0195312 -0.925781 0.03125 -0.90625 C 0.0703125 -0.726562 0.144531 -0.570312 0.25 -0.4375 C 0.363281 -0.300781 0.5 -0.191406 0.65625 -0.109375 C 0.8125 -0.0351562 0.976562 0 1.15625 0 C 1.289062 0 1.414062 -0.0195312 1.53125 -0.0625 C 1.65625 -0.101562 1.765625 -0.160156 1.859375 -0.234375 L 1.53125 -0.5625 C 1.414062 -0.488281 1.289062 -0.453125 1.15625 -0.453125 C 1.007812 -0.453125 0.875 -0.492188 0.75 -0.578125 C 0.632812 -0.660156 0.550781 -0.769531 0.5 -0.90625 L 2.296875 -0.90625 C 2.304688 -0.988281 2.3125 -1.070312 2.3125 -1.15625 C 2.3125 -1.21875 2.304688 -1.28125 2.296875 -1.34375 C 2.265625 -1.53125 2.191406 -1.695312 2.078125 -1.84375 C 1.972656 -1.988281 1.84375 -2.101562 1.6875 -2.1875 C 1.53125 -2.269531 1.351562 -2.3125 1.15625 -2.3125 Z M 1.15625 -1.875 C 1.320312 -1.875 1.46875 -1.820312 1.59375 -1.71875 C 1.71875 -1.625 1.800781 -1.5 1.84375 -1.34375 L 0.46875 -1.34375 C 0.519531 -1.5 0.609375 -1.625 0.734375 -1.71875 C 0.859375 -1.820312 1 -1.875 1.15625 -1.875 Z M 1.15625 -1.875 "/></g></g></g><g fill="#ffffff" fill-opacity="1"><g transform="translate(47.710048, 31.519951)"><g><path d="M 1.875 -3.640625 L 1.875 -2.078125 C 1.769531 -2.148438 1.65625 -2.207031 1.53125 -2.25 C 1.414062 -2.289062 1.289062 -2.3125 1.15625 -2.3125 C 0.945312 -2.3125 0.753906 -2.257812 0.578125 -2.15625 C 0.398438 -2.050781 0.257812 -1.910156 0.15625 -1.734375 C 0.0507812 -1.554688 0 -1.363281 0 -1.15625 C 0 -0.945312 0.0507812 -0.753906 0.15625 -0.578125 C 0.257812 -0.398438 0.398438 -0.257812 0.578125 -0.15625 C 0.753906 -0.0507812 0.945312 0 1.15625 0 C 1.363281 0 1.554688 -0.0507812 1.734375 -0.15625 C 1.910156 -0.257812 2.050781 -0.398438 2.15625 -0.578125 C 2.257812 -0.753906 2.3125 -0.945312 2.3125 -1.15625 L 2.3125 -3.640625 Z M 1.15625 -1.875 C 1.289062 -1.875 1.410156 -1.835938 1.515625 -1.765625 C 1.617188 -1.703125 1.703125 -1.617188 1.765625 -1.515625 C 1.835938 -1.410156 1.875 -1.289062 1.875 -1.15625 C 1.875 -1.03125 1.835938 -0.910156 1.765625 -0.796875 C 1.703125 -0.691406 1.617188 -0.609375 1.515625 -0.546875 C 1.410156 -0.484375 1.289062 -0.453125 1.15625 -0.453125 C 1.03125 -0.453125 0.910156 -0.484375 0.796875 -0.546875 C 0.691406 -0.609375 0.609375 -0.691406 0.546875 -0.796875 C 0.484375 -0.910156 0.453125 -1.03125 0.453125 -1.15625 C 0.453125 -1.289062 0.484375 -1.410156 0.546875 -1.515625 C 0.609375 -1.617188 0.691406 -1.703125 0.796875 -1.765625 C 0.910156 -1.835938 1.03125 -1.875 1.15625 -1.875 Z M 1.15625 -1.875 "/></g></g></g><g fill="#ffffff" fill-opacity="1"><g transform="translate(50.734299, 31.519951)"><g><path d="M 0.21875 -3.09375 C 0.15625 -3.09375 0.101562 -3.066406 0.0625 -3.015625 C 0.0195312 -2.972656 0 -2.921875 0 -2.859375 C 0 -2.796875 0.0195312 -2.742188 0.0625 -2.703125 C 0.101562 -2.660156 0.15625 -2.640625 0.21875 -2.640625 C 0.289062 -2.640625 0.347656 -2.660156 0.390625 -2.703125 C 0.429688 -2.742188 0.453125 -2.796875 0.453125 -2.859375 C 0.453125 -2.921875 0.429688 -2.972656 0.390625 -3.015625 C 0.347656 -3.066406 0.289062 -3.09375 0.21875 -3.09375 Z M 0 -2.3125 L 0 0 L 0.453125 0 L 0.453125 -2.3125 Z M 0 -2.3125 "/></g></g></g><g fill="#ffffff" fill-opacity="1"><g transform="translate(52.008297, 31.519951)"><g><path d="M 1.09375 -2.3125 C 0.882812 -2.3125 0.691406 -2.257812 0.515625 -2.15625 C 0.335938 -2.050781 0.195312 -1.910156 0.09375 -1.734375 C -0.0078125 -1.554688 -0.0625 -1.363281 -0.0625 -1.15625 C -0.0625 -0.945312 -0.0078125 -0.753906 0.09375 -0.578125 C 0.195312 -0.398438 0.335938 -0.257812 0.515625 -0.15625 C 0.691406 -0.0507812 0.882812 0 1.09375 0 C 1.226562 0 1.359375 -0.0195312 1.484375 -0.0625 C 1.609375 -0.101562 1.71875 -0.164062 1.8125 -0.25 L 1.5 -0.578125 C 1.375 -0.492188 1.238281 -0.453125 1.09375 -0.453125 C 0.96875 -0.453125 0.847656 -0.484375 0.734375 -0.546875 C 0.628906 -0.609375 0.546875 -0.691406 0.484375 -0.796875 C 0.421875 -0.910156 0.390625 -1.03125 0.390625 -1.15625 C 0.390625 -1.289062 0.421875 -1.410156 0.484375 -1.515625 C 0.546875 -1.617188 0.628906 -1.703125 0.734375 -1.765625 C 0.847656 -1.835938 0.96875 -1.875 1.09375 -1.875 C 1.238281 -1.875 1.375 -1.832031 1.5 -1.75 L 1.8125 -2.078125 C 1.71875 -2.148438 1.609375 -2.207031 1.484375 -2.25 C 1.359375 -2.289062 1.226562 -2.3125 1.09375 -2.3125 Z M 1.09375 -2.3125 "/></g></g></g><g fill="#ffffff" fill-opacity="1"><g transform="translate(54.526523, 31.519951)"><g><path d="M 1.15625 -2.3125 C 0.945312 -2.3125 0.753906 -2.257812 0.578125 -2.15625 C 0.398438 -2.050781 0.257812 -1.910156 0.15625 -1.734375 C 0.0507812 -1.554688 0 -1.363281 0 -1.15625 C 0 -0.945312 0.0507812 -0.753906 0.15625 -0.578125 C 0.257812 -0.398438 0.398438 -0.257812 0.578125 -0.15625 C 0.753906 -0.0507812 0.945312 0 1.15625 0 C 1.289062 0 1.414062 -0.0195312 1.53125 -0.0625 C 1.65625 -0.101562 1.769531 -0.164062 1.875 -0.25 L 1.875 0 L 2.3125 0 L 2.3125 -1.15625 C 2.3125 -1.363281 2.257812 -1.554688 2.15625 -1.734375 C 2.050781 -1.910156 1.910156 -2.050781 1.734375 -2.15625 C 1.554688 -2.257812 1.363281 -2.3125 1.15625 -2.3125 Z M 1.15625 -1.875 C 1.289062 -1.875 1.410156 -1.835938 1.515625 -1.765625 C 1.617188 -1.703125 1.703125 -1.617188 1.765625 -1.515625 C 1.835938 -1.410156 1.875 -1.289062 1.875 -1.15625 C 1.875 -1.03125 1.835938 -0.910156 1.765625 -0.796875 C 1.703125 -0.691406 1.617188 -0.609375 1.515625 -0.546875 C 1.410156 -0.484375 1.289062 -0.453125 1.15625 -0.453125 C 1.03125 -0.453125 0.910156 -0.484375 0.796875 -0.546875 C 0.691406 -0.609375 0.609375 -0.691406 0.546875 -0.796875 C 0.484375 -0.910156 0.453125 -1.03125 0.453125 -1.15625 C 0.453125 -1.289062 0.484375 -1.410156 0.546875 -1.515625 C 0.609375 -1.617188 0.691406 -1.703125 0.796875 -1.765625 C 0.910156 -1.835938 1.03125 -1.875 1.15625 -1.875 Z M 1.15625 -1.875 "/></g></g></g><g fill="#ffffff" fill-opacity="1"><g transform="translate(57.66984, 31.519951)"><g><path d="M 0 -3.640625 L 0.453125 -3.640625 L 0.453125 0 L 0 0 Z M 0 -3.640625 "/></g></g></g><g fill="#ffffff" fill-opacity="1"><g transform="translate(58.943839, 31.519951)"><g/></g></g><g fill="#ffffff" fill-opacity="1"><g transform="translate(60.366668, 31.519951)"><g><path d="M 0 0 L 0 -1.15625 C 0 -1.363281 0.0507812 -1.554688 0.15625 -1.734375 C 0.257812 -1.910156 0.398438 -2.050781 0.578125 -2.15625 C 0.753906 -2.257812 0.945312 -2.3125 1.15625 -2.3125 C 1.351562 -2.3125 1.53125 -2.269531 1.6875 -2.1875 C 1.851562 -2.101562 1.988281 -1.988281 2.09375 -1.84375 C 2.195312 -1.988281 2.328125 -2.101562 2.484375 -2.1875 C 2.648438 -2.269531 2.832031 -2.3125 3.03125 -2.3125 C 3.238281 -2.3125 3.429688 -2.257812 3.609375 -2.15625 C 3.785156 -2.050781 3.925781 -1.910156 4.03125 -1.734375 C 4.132812 -1.554688 4.1875 -1.363281 4.1875 -1.15625 L 4.1875 0 L 3.734375 0 L 3.734375 -1.15625 C 3.734375 -1.289062 3.703125 -1.410156 3.640625 -1.515625 C 3.578125 -1.617188 3.488281 -1.703125 3.375 -1.765625 C 3.269531 -1.835938 3.15625 -1.875 3.03125 -1.875 C 2.894531 -1.875 2.769531 -1.835938 2.65625 -1.765625 C 2.550781 -1.703125 2.46875 -1.617188 2.40625 -1.515625 C 2.34375 -1.410156 2.3125 -1.289062 2.3125 -1.15625 L 2.3125 0 L 1.875 0 L 1.875 -1.15625 C 1.875 -1.289062 1.835938 -1.410156 1.765625 -1.515625 C 1.703125 -1.617188 1.617188 -1.703125 1.515625 -1.765625 C 1.410156 -1.835938 1.289062 -1.875 1.15625 -1.875 C 1.03125 -1.875 0.910156 -1.835938 0.796875 -1.765625 C 0.691406 -1.703125 0.609375 -1.617188 0.546875 -1.515625 C 0.484375 -1.410156 0.453125 -1.289062 0.453125 -1.15625 L 0.453125 0 Z M 0 0 "/></g></g></g><g fill="#ffffff" fill-opacity="1"><g transform="translate(65.379306, 31.519951)"><g><path d="M 0.21875 -3.09375 C 0.15625 -3.09375 0.101562 -3.066406 0.0625 -3.015625 C 0.0195312 -2.972656 0 -2.921875 0 -2.859375 C 0 -2.796875 0.0195312 -2.742188 0.0625 -2.703125 C 0.101562 -2.660156 0.15625 -2.640625 0.21875 -2.640625 C 0.289062 -2.640625 0.347656 -2.660156 0.390625 -2.703125 C 0.429688 -2.742188 0.453125 -2.796875 0.453125 -2.859375 C 0.453125 -2.921875 0.429688 -2.972656 0.390625 -3.015625 C 0.347656 -3.066406 0.289062 -3.09375 0.21875 -3.09375 Z M 0 -2.3125 L 0 0 L 0.453125 0 L 0.453125 -2.3125 Z M 0 -2.3125 "/></g></g></g><g fill="#ffffff" fill-opacity="1"><g transform="translate(66.653307, 31.519951)"><g><path d="M 0 0 L 0 -1.15625 C 0 -1.363281 0.0507812 -1.554688 0.15625 -1.734375 C 0.257812 -1.910156 0.398438 -2.050781 0.578125 -2.15625 C 0.753906 -2.257812 0.945312 -2.3125 1.15625 -2.3125 C 1.363281 -2.3125 1.554688 -2.257812 1.734375 -2.15625 C 1.910156 -2.050781 2.050781 -1.910156 2.15625 -1.734375 C 2.257812 -1.554688 2.3125 -1.363281 2.3125 -1.15625 L 2.3125 0 L 1.875 0 L 1.875 -1.15625 C 1.875 -1.289062 1.835938 -1.410156 1.765625 -1.515625 C 1.703125 -1.617188 1.617188 -1.703125 1.515625 -1.765625 C 1.410156 -1.835938 1.289062 -1.875 1.15625 -1.875 C 1.03125 -1.875 0.910156 -1.835938 0.796875 -1.765625 C 0.691406 -1.703125 0.609375 -1.617188 0.546875 -1.515625 C 0.484375 -1.410156 0.453125 -1.289062 0.453125 -1.15625 L 0.453125 0 Z M 0 0 "/></g></g></g><g fill="#ffffff" fill-opacity="1"><g transform="translate(69.796624, 31.519951)"><g><path d="M 1.875 -3.640625 L 1.875 -2.078125 C 1.769531 -2.148438 1.65625 -2.207031 1.53125 -2.25 C 1.414062 -2.289062 1.289062 -2.3125 1.15625 -2.3125 C 0.945312 -2.3125 0.753906 -2.257812 0.578125 -2.15625 C 0.398438 -2.050781 0.257812 -1.910156 0.15625 -1.734375 C 0.0507812 -1.554688 0 -1.363281 0 -1.15625 C 0 -0.945312 0.0507812 -0.753906 0.15625 -0.578125 C 0.257812 -0.398438 0.398438 -0.257812 0.578125 -0.15625 C 0.753906 -0.0507812 0.945312 0 1.15625 0 C 1.363281 0 1.554688 -0.0507812 1.734375 -0.15625 C 1.910156 -0.257812 2.050781 -0.398438 2.15625 -0.578125 C 2.257812 -0.753906 2.3125 -0.945312 2.3125 -1.15625 L 2.3125 -3.640625 Z M 1.15625 -1.875 C 1.289062 -1.875 1.410156 -1.835938 1.515625 -1.765625 C 1.617188 -1.703125 1.703125 -1.617188 1.765625 -1.515625 C 1.835938 -1.410156 1.875 -1.289062 1.875 -1.15625 C 1.875 -1.03125 1.835938 -0.910156 1.765625 -0.796875 C 1.703125 -0.691406 1.617188 -0.609375 1.515625 -0.546875 C 1.410156 -0.484375 1.289062 -0.453125 1.15625 -0.453125 C 1.03125 -0.453125 0.910156 -0.484375 0.796875 -0.546875 C 0.691406 -0.609375 0.609375 -0.691406 0.546875 -0.796875 C 0.484375 -0.910156 0.453125 -1.03125 0.453125 -1.15625 C 0.453125 -1.289062 0.484375 -1.410156 0.546875 -1.515625 C 0.609375 -1.617188 0.691406 -1.703125 0.796875 -1.765625 C 0.910156 -1.835938 1.03125 -1.875 1.15625 -1.875 Z M 1.15625 -1.875 "/></g></g></g><g fill="#ffffff" fill-opacity="1"><g transform="translate(72.820878, 31.519951)"><g><path d="M 0.671875 -2.3125 C 0.546875 -2.3125 0.429688 -2.28125 0.328125 -2.21875 C 0.234375 -2.164062 0.15625 -2.085938 0.09375 -1.984375 C 0.03125 -1.878906 0 -1.765625 0 -1.640625 L 0 -1.609375 C 0 -1.484375 0.03125 -1.367188 0.09375 -1.265625 C 0.15625 -1.171875 0.234375 -1.09375 0.328125 -1.03125 C 0.429688 -0.96875 0.546875 -0.9375 0.671875 -0.9375 L 1.640625 -0.9375 C 1.703125 -0.9375 1.753906 -0.910156 1.796875 -0.859375 C 1.847656 -0.816406 1.875 -0.765625 1.875 -0.703125 L 1.875 -0.671875 C 1.875 -0.609375 1.847656 -0.554688 1.796875 -0.515625 C 1.753906 -0.472656 1.703125 -0.453125 1.640625 -0.453125 L 0 -0.453125 L 0 0 L 1.640625 0 C 1.765625 0 1.878906 -0.03125 1.984375 -0.09375 C 2.085938 -0.15625 2.164062 -0.234375 2.21875 -0.328125 C 2.28125 -0.429688 2.3125 -0.546875 2.3125 -0.671875 L 2.3125 -0.703125 C 2.3125 -0.828125 2.28125 -0.941406 2.21875 -1.046875 C 2.164062 -1.148438 2.085938 -1.234375 1.984375 -1.296875 C 1.878906 -1.359375 1.765625 -1.390625 1.640625 -1.390625 L 0.671875 -1.390625 C 0.609375 -1.390625 0.554688 -1.410156 0.515625 -1.453125 C 0.472656 -1.492188 0.453125 -1.546875 0.453125 -1.609375 L 0.453125 -1.640625 C 0.453125 -1.703125 0.472656 -1.753906 0.515625 -1.796875 C 0.554688 -1.847656 0.609375 -1.875 0.671875 -1.875 L 2.3125 -1.875 L 2.3125 -2.3125 Z M 0.671875 -2.3125 "/></g></g></g><g fill="#ffffff" fill-opacity="1"><g transform="translate(75.964195, 31.519951)"><g/></g></g><g fill="#ffffff" fill-opacity="1"><g transform="translate(77.387027, 31.519951)"><g><path d="M 0 0 L 0 -1.15625 C 0 -1.363281 0.0507812 -1.554688 0.15625 -1.734375 C 0.257812 -1.910156 0.398438 -2.050781 0.578125 -2.15625 C 0.753906 -2.257812 0.945312 -2.3125 1.15625 -2.3125 C 1.351562 -2.3125 1.53125 -2.269531 1.6875 -2.1875 C 1.851562 -2.101562 1.988281 -1.988281 2.09375 -1.84375 C 2.195312 -1.988281 2.328125 -2.101562 2.484375 -2.1875 C 2.648438 -2.269531 2.832031 -2.3125 3.03125 -2.3125 C 3.238281 -2.3125 3.429688 -2.257812 3.609375 -2.15625 C 3.785156 -2.050781 3.925781 -1.910156 4.03125 -1.734375 C 4.132812 -1.554688 4.1875 -1.363281 4.1875 -1.15625 L 4.1875 0 L 3.734375 0 L 3.734375 -1.15625 C 3.734375 -1.289062 3.703125 -1.410156 3.640625 -1.515625 C 3.578125 -1.617188 3.488281 -1.703125 3.375 -1.765625 C 3.269531 -1.835938 3.15625 -1.875 3.03125 -1.875 C 2.894531 -1.875 2.769531 -1.835938 2.65625 -1.765625 C 2.550781 -1.703125 2.46875 -1.617188 2.40625 -1.515625 C 2.34375 -1.410156 2.3125 -1.289062 2.3125 -1.15625 L 2.3125 0 L 1.875 0 L 1.875 -1.15625 C 1.875 -1.289062 1.835938 -1.410156 1.765625 -1.515625 C 1.703125 -1.617188 1.617188 -1.703125 1.515625 -1.765625 C 1.410156 -1.835938 1.289062 -1.875 1.15625 -1.875 C 1.03125 -1.875 0.910156 -1.835938 0.796875 -1.765625 C 0.691406 -1.703125 0.609375 -1.617188 0.546875 -1.515625 C 0.484375 -1.410156 0.453125 -1.289062 0.453125 -1.15625 L 0.453125 0 Z M 0 0 "/></g></g></g><g fill="#ffffff" fill-opacity="1"><g transform="translate(82.399665, 31.519951)"><g><path d="M 1.15625 -2.3125 C 0.96875 -2.3125 0.789062 -2.269531 0.625 -2.1875 C 0.46875 -2.101562 0.332031 -1.988281 0.21875 -1.84375 C 0.113281 -1.695312 0.046875 -1.53125 0.015625 -1.34375 C 0.00390625 -1.28125 0 -1.21875 0 -1.15625 C 0 -1.101562 0.00390625 -1.046875 0.015625 -0.984375 C 0.015625 -0.953125 0.0195312 -0.925781 0.03125 -0.90625 C 0.0703125 -0.726562 0.144531 -0.570312 0.25 -0.4375 C 0.363281 -0.300781 0.5 -0.191406 0.65625 -0.109375 C 0.8125 -0.0351562 0.976562 0 1.15625 0 C 1.289062 0 1.414062 -0.0195312 1.53125 -0.0625 C 1.65625 -0.101562 1.765625 -0.160156 1.859375 -0.234375 L 1.53125 -0.5625 C 1.414062 -0.488281 1.289062 -0.453125 1.15625 -0.453125 C 1.007812 -0.453125 0.875 -0.492188 0.75 -0.578125 C 0.632812 -0.660156 0.550781 -0.769531 0.5 -0.90625 L 2.296875 -0.90625 C 2.304688 -0.988281 2.3125 -1.070312 2.3125 -1.15625 C 2.3125 -1.21875 2.304688 -1.28125 2.296875 -1.34375 C 2.265625 -1.53125 2.191406 -1.695312 2.078125 -1.84375 C 1.972656 -1.988281 1.84375 -2.101562 1.6875 -2.1875 C 1.53125 -2.269531 1.351562 -2.3125 1.15625 -2.3125 Z M 1.15625 -1.875 C 1.320312 -1.875 1.46875 -1.820312 1.59375 -1.71875 C 1.71875 -1.625 1.800781 -1.5 1.84375 -1.34375 L 0.46875 -1.34375 C 0.519531 -1.5 0.609375 -1.625 0.734375 -1.71875 C 0.859375 -1.820312 1 -1.875 1.15625 -1.875 Z M 1.15625 -1.875 "/></g></g></g><g fill="#ffffff" fill-opacity="1"><g transform="translate(85.423919, 31.519951)"><g><path d="M 1.15625 -2.3125 C 0.96875 -2.3125 0.789062 -2.269531 0.625 -2.1875 C 0.46875 -2.101562 0.332031 -1.988281 0.21875 -1.84375 C 0.113281 -1.695312 0.046875 -1.53125 0.015625 -1.34375 C 0.00390625 -1.28125 0 -1.21875 0 -1.15625 C 0 -1.101562 0.00390625 -1.046875 0.015625 -0.984375 C 0.015625 -0.953125 0.0195312 -0.925781 0.03125 -0.90625 C 0.0703125 -0.726562 0.144531 -0.570312 0.25 -0.4375 C 0.363281 -0.300781 0.5 -0.191406 0.65625 -0.109375 C 0.8125 -0.0351562 0.976562 0 1.15625 0 C 1.289062 0 1.414062 -0.0195312 1.53125 -0.0625 C 1.65625 -0.101562 1.765625 -0.160156 1.859375 -0.234375 L 1.53125 -0.5625 C 1.414062 -0.488281 1.289062 -0.453125 1.15625 -0.453125 C 1.007812 -0.453125 0.875 -0.492188 0.75 -0.578125 C 0.632812 -0.660156 0.550781 -0.769531 0.5 -0.90625 L 2.296875 -0.90625 C 2.304688 -0.988281 2.3125 -1.070312 2.3125 -1.15625 C 2.3125 -1.21875 2.304688 -1.28125 2.296875 -1.34375 C 2.265625 -1.53125 2.191406 -1.695312 2.078125 -1.84375 C 1.972656 -1.988281 1.84375 -2.101562 1.6875 -2.1875 C 1.53125 -2.269531 1.351562 -2.3125 1.15625 -2.3125 Z M 1.15625 -1.875 C 1.320312 -1.875 1.46875 -1.820312 1.59375 -1.71875 C 1.71875 -1.625 1.800781 -1.5 1.84375 -1.34375 L 0.46875 -1.34375 C 0.519531 -1.5 0.609375 -1.625 0.734375 -1.71875 C 0.859375 -1.820312 1 -1.875 1.15625 -1.875 Z M 1.15625 -1.875 "/></g></g></g><g fill="#ffffff" fill-opacity="1"><g transform="translate(88.448173, 31.519951)"><g><path d="M 0.390625 -3.09375 L 0.390625 -2.3125 L -0.0625 -2.3125 L -0.0625 -1.875 L 0.390625 -1.875 L 0.390625 -1.15625 C 0.390625 -0.945312 0.441406 -0.753906 0.546875 -0.578125 C 0.648438 -0.398438 0.789062 -0.257812 0.96875 -0.15625 C 1.144531 -0.0507812 1.335938 0 1.546875 0 L 1.546875 -0.453125 C 1.410156 -0.453125 1.289062 -0.484375 1.1875 -0.546875 C 1.082031 -0.609375 1 -0.691406 0.9375 -0.796875 C 0.875 -0.910156 0.84375 -1.03125 0.84375 -1.15625 L 0.84375 -1.875 L 1.546875 -1.875 L 1.546875 -2.3125 L 0.84375 -2.3125 L 0.84375 -3.09375 Z M 0.390625 -3.09375 "/></g></g></g><g fill="#ffffff" fill-opacity="1"><g transform="translate(63.620115, 19.066195)"><g><path d="M 0 -9.90625 L 0 0 L 1.9375 0 L 1.9375 -4.96875 C 1.9375 -5.519531 2.070312 -6.023438 2.34375 -6.484375 C 2.613281 -6.941406 2.976562 -7.304688 3.4375 -7.578125 C 3.894531 -7.859375 4.40625 -8 4.96875 -8 C 5.382812 -8 5.789062 -7.90625 6.1875 -7.71875 L 7.609375 -9.140625 C 6.796875 -9.648438 5.914062 -9.90625 4.96875 -9.90625 C 4.382812 -9.90625 3.832031 -9.8125 3.3125 -9.625 C 2.800781 -9.445312 2.34375 -9.203125 1.9375 -8.890625 L 1.9375 -9.90625 Z M 0 -9.90625 "/></g></g></g></svg>