<svg xmlns="http://www.w3.org/2000/svg" xmlns:xlink="http://www.w3.org/1999/xlink" width="500" zoomAndPan="magnify" viewBox="0 0 375 374.999991" height="500" preserveAspectRatio="xMidYMid meet" version="1.0"><defs><g/><clipPath id="d2fceaa16f"><path d="M 12.328125 144.160156 L 50.578125 144.160156 L 50.578125 194.410156 L 12.328125 194.410156 Z M 12.328125 144.160156 " clip-rule="nonzero"/></clipPath><clipPath id="119c42f457"><path d="M 31.375 143.878906 C 41.96875 143.878906 50.578125 152.488281 50.578125 163.078125 L 50.578125 189.65625 C 50.578125 192.285156 48.453125 194.40625 45.828125 194.40625 C 43.199219 194.40625 41.078125 192.285156 41.078125 189.65625 L 41.078125 163.078125 C 41.078125 157.734375 36.722656 153.378906 31.375 153.378906 C 26.03125 153.378906 21.675781 157.734375 21.675781 163.078125 L 21.675781 189.65625 C 21.675781 192.285156 19.550781 194.40625 16.925781 194.40625 C 14.296875 194.40625 12.175781 192.285156 12.175781 189.65625 L 12.175781 163.078125 C 12.183594 152.488281 20.796875 143.878906 31.375 143.878906 Z M 31.375 143.878906 " clip-rule="nonzero"/></clipPath><clipPath id="82bee3961d"><path d="M 41.457031 144.160156 L 79.707031 144.160156 L 79.707031 194.410156 L 41.457031 194.410156 Z M 41.457031 144.160156 " clip-rule="nonzero"/></clipPath><clipPath id="d40c3b884f"><path d="M 60.507812 143.878906 C 71.097656 143.878906 79.707031 152.488281 79.707031 163.078125 L 79.707031 189.65625 C 79.707031 192.285156 77.585938 194.40625 74.957031 194.40625 C 72.332031 194.40625 70.207031 192.285156 70.207031 189.65625 L 70.207031 163.078125 C 70.207031 157.734375 65.851562 153.378906 60.507812 153.378906 C 55.160156 153.378906 50.804688 157.734375 50.804688 163.078125 L 50.804688 189.65625 C 50.804688 192.285156 48.683594 194.40625 46.054688 194.40625 C 43.425781 194.40625 41.304688 192.285156 41.304688 189.65625 L 41.304688 163.078125 C 41.316406 152.488281 49.925781 143.878906 60.507812 143.878906 Z M 60.507812 143.878906 " clip-rule="nonzero"/></clipPath><clipPath id="d31ab5cec6"><path d="M 83.292969 143.878906 L 131 143.878906 L 131 194.128906 L 83.292969 194.128906 Z M 83.292969 143.878906 " clip-rule="nonzero"/></clipPath><clipPath id="99ee3ef416"><path d="M 163.117188 124.011719 L 172.117188 124.011719 L 172.117188 182.511719 L 163.117188 182.511719 Z M 163.117188 124.011719 " clip-rule="nonzero"/></clipPath><clipPath id="7c84a856c9"><path d="M 134.144531 143.878906 L 172.394531 143.878906 L 172.394531 194.128906 L 134.144531 194.128906 Z M 134.144531 143.878906 " clip-rule="nonzero"/></clipPath><clipPath id="ccbcdf5422"><path d="M 151.390625 143.878906 L 154.875 143.878906 C 164.402344 143.878906 172.125 151.601562 172.125 161.128906 L 172.125 177.160156 C 172.125 186.683594 164.402344 194.40625 154.875 194.40625 L 151.390625 194.40625 C 141.867188 194.40625 134.144531 186.683594 134.144531 177.160156 L 134.144531 161.128906 C 134.144531 151.601562 141.867188 143.878906 151.390625 143.878906 Z M 151.390625 143.878906 " clip-rule="nonzero"/></clipPath><clipPath id="bc41eecca9"><path d="M 267.628906 143.878906 L 278.53125 143.878906 L 278.53125 194.421875 L 267.628906 194.421875 Z M 267.628906 143.878906 " clip-rule="nonzero"/></clipPath><clipPath id="16f32c5731"><path d="M 273.078125 143.878906 C 274.523438 143.878906 275.910156 144.453125 276.933594 145.472656 C 277.957031 146.496094 278.53125 147.882812 278.53125 149.328125 L 278.53125 188.960938 C 278.53125 190.40625 277.957031 191.792969 276.933594 192.816406 C 275.910156 193.835938 274.523438 194.410156 273.078125 194.410156 C 271.632812 194.410156 270.246094 193.835938 269.226562 192.816406 C 268.203125 191.792969 267.628906 190.40625 267.628906 188.960938 L 267.628906 149.328125 C 267.628906 147.882812 268.203125 146.496094 269.226562 145.472656 C 270.246094 144.453125 271.632812 143.878906 273.078125 143.878906 Z M 273.078125 143.878906 " clip-rule="nonzero"/></clipPath><clipPath id="efbabee0c4"><path d="M 267.703125 129.445312 L 278.53125 129.445312 L 278.53125 140.273438 L 267.703125 140.273438 Z M 267.703125 129.445312 " clip-rule="nonzero"/></clipPath><clipPath id="a6ebb862f0"><path d="M 273.117188 129.445312 C 270.125 129.445312 267.703125 131.871094 267.703125 134.859375 C 267.703125 137.847656 270.125 140.273438 273.117188 140.273438 C 276.105469 140.273438 278.53125 137.847656 278.53125 134.859375 C 278.53125 131.871094 276.105469 129.445312 273.117188 129.445312 Z M 273.117188 129.445312 " clip-rule="nonzero"/></clipPath><clipPath id="8482c11047"><path d="M 281.75 143.878906 L 320.75 143.878906 L 320.75 194.128906 L 281.75 194.128906 Z M 281.75 143.878906 " clip-rule="nonzero"/></clipPath><clipPath id="596898d03e"><path d="M 323.789062 143.878906 L 362.789062 143.878906 L 362.789062 194.128906 L 323.789062 194.128906 Z M 323.789062 143.878906 " clip-rule="nonzero"/></clipPath><clipPath id="9021647a98"><path d="M 269.433594 206.683594 L 349.890625 206.683594 L 349.890625 217.554688 L 269.433594 217.554688 Z M 269.433594 206.683594 " clip-rule="nonzero"/></clipPath><clipPath id="79222d9c20"><path d="M 269.433594 212.117188 C 269.433594 209.117188 271.863281 206.683594 274.867188 206.683594 L 344.425781 206.683594 C 347.425781 206.683594 349.859375 209.117188 349.859375 212.117188 C 349.859375 215.121094 347.425781 217.554688 344.425781 217.554688 L 274.867188 217.554688 C 271.863281 217.554688 269.433594 215.121094 269.433594 212.117188 Z M 269.433594 212.117188 " clip-rule="nonzero"/></clipPath><clipPath id="0806c5daf8"><path d="M 267.703125 206.679688 L 292.96875 206.679688 L 292.96875 217.550781 L 267.703125 217.550781 Z M 267.703125 206.679688 " clip-rule="nonzero"/></clipPath><clipPath id="17b2beca2e"><path d="M 267.703125 212.117188 C 267.703125 209.113281 270.136719 206.679688 273.140625 206.679688 L 287.53125 206.679688 C 290.535156 206.679688 292.96875 209.113281 292.96875 212.117188 C 292.96875 215.117188 290.535156 217.550781 287.53125 217.550781 L 273.140625 217.550781 C 270.136719 217.550781 267.703125 215.117188 267.703125 212.117188 Z M 267.703125 212.117188 " clip-rule="nonzero"/></clipPath><clipPath id="0b64ce772f"><path d="M 178 143 L 223 143 L 223 195 L 178 195 Z M 178 143 " clip-rule="nonzero"/></clipPath><clipPath id="039ad2794a"><path d="M 200.894531 133.441406 L 238.726562 166.519531 L 205.648438 204.347656 L 167.820312 171.269531 Z M 200.894531 133.441406 " clip-rule="nonzero"/></clipPath><clipPath id="d2c8f305f6"><path d="M 200.894531 133.441406 L 238.726562 166.519531 L 205.648438 204.347656 L 167.820312 171.269531 Z M 200.894531 133.441406 " clip-rule="nonzero"/></clipPath></defs><g clip-path="url(#d2fceaa16f)"><g clip-path="url(#119c42f457)"><path fill="#5271ff" d="M 50.578125 194.40625 L 50.578125 144.160156 L 12.328125 144.160156 L 12.328125 194.40625 Z M 50.578125 194.40625 " fill-opacity="1" fill-rule="nonzero"/></g></g><g clip-path="url(#82bee3961d)"><g clip-path="url(#d40c3b884f)"><path fill="#5271ff" d="M 79.707031 194.40625 L 79.707031 144.160156 L 41.457031 144.160156 L 41.457031 194.40625 Z M 79.707031 194.40625 " fill-opacity="1" fill-rule="nonzero"/></g></g><g clip-path="url(#d31ab5cec6)"><path fill="#5271ff" d="M 107.105469 194.394531 C 93.988281 194.394531 83.292969 183.050781 83.292969 169.160156 C 83.292969 155.265625 93.988281 143.894531 107.105469 143.894531 C 119.125 143.894531 129.273438 153.425781 130.757812 166.023438 C 130.917969 167.351562 130.53125 168.675781 129.691406 169.675781 C 128.851562 170.679688 127.65625 171.257812 126.394531 171.257812 L 92.210938 171.257812 C 93.179688 179.046875 99.515625 185.089844 107.105469 185.089844 C 111.664062 185.089844 115.894531 182.957031 118.769531 179.207031 C 120.289062 177.203125 123.066406 176.914062 124.941406 178.527344 C 126.816406 180.144531 127.105469 183.085938 125.589844 185.089844 C 121.03125 191 114.3125 194.394531 107.105469 194.394531 Z M 93.699219 161.953125 L 120.546875 161.953125 C 118.058594 156.71875 112.921875 153.199219 107.105469 153.199219 C 101.257812 153.199219 96.1875 156.753906 93.699219 161.953125 Z M 93.699219 161.953125 " fill-opacity="1" fill-rule="nonzero"/></g><g clip-path="url(#99ee3ef416)"><path fill="#5271ff" d="M 172.117188 127.722656 L 172.117188 179.046875 C 172.117188 179.53125 172.023438 180 171.835938 180.453125 C 171.652344 180.902344 171.386719 181.300781 171.039062 181.644531 C 170.695312 181.988281 170.296875 182.253906 169.847656 182.441406 C 169.398438 182.628906 168.929688 182.722656 168.441406 182.722656 L 166.722656 182.722656 C 166.234375 182.722656 165.765625 182.628906 165.316406 182.441406 C 164.867188 182.253906 164.46875 181.988281 164.125 181.644531 C 163.777344 181.300781 163.511719 180.902344 163.328125 180.453125 C 163.140625 180 163.046875 179.53125 163.046875 179.046875 L 163.046875 127.722656 C 163.046875 127.234375 163.140625 126.765625 163.328125 126.316406 C 163.511719 125.863281 163.777344 125.46875 164.125 125.121094 C 164.46875 124.777344 164.867188 124.511719 165.316406 124.324219 C 165.765625 124.140625 166.234375 124.046875 166.722656 124.046875 L 168.441406 124.046875 C 168.929688 124.046875 169.398438 124.140625 169.847656 124.324219 C 170.296875 124.511719 170.695312 124.777344 171.039062 125.121094 C 171.386719 125.46875 171.652344 125.863281 171.835938 126.316406 C 172.023438 126.765625 172.117188 127.234375 172.117188 127.722656 Z M 172.117188 127.722656 " fill-opacity="1" fill-rule="nonzero"/></g><g clip-path="url(#7c84a856c9)"><g clip-path="url(#ccbcdf5422)"><path stroke-linecap="butt" transform="matrix(0.75, 0, 0, 0.75, 134.143796, 143.878937)" fill="none" stroke-linejoin="miter" d="M 22.995775 -0.0000409359 L 27.641609 -0.0000409359 C 40.344736 -0.0000409359 50.641612 10.296835 50.641612 22.999962 L 50.641612 44.374965 C 50.641612 57.072883 40.344736 67.369759 27.641609 67.369759 L 22.995775 67.369759 C 10.297857 67.369759 0.000980745 57.072883 0.000980745 44.374965 L 0.000980745 22.999962 C 0.000980745 10.296835 10.297857 -0.0000409359 22.995775 -0.0000409359 Z M 22.995775 -0.0000409359 " stroke="#5271ff" stroke-width="24" stroke-opacity="1" stroke-miterlimit="4"/></g></g><g clip-path="url(#bc41eecca9)"><g clip-path="url(#16f32c5731)"><path fill="#1c2d3b" d="M 267.628906 143.878906 L 278.53125 143.878906 L 278.53125 194.421875 L 267.628906 194.421875 Z M 267.628906 143.878906 " fill-opacity="1" fill-rule="nonzero"/></g></g><g clip-path="url(#efbabee0c4)"><g clip-path="url(#a6ebb862f0)"><path fill="#00bf63" d="M 267.703125 129.445312 L 278.53125 129.445312 L 278.53125 140.273438 L 267.703125 140.273438 Z M 267.703125 129.445312 " fill-opacity="1" fill-rule="nonzero"/></g></g><g clip-path="url(#8482c11047)"><path fill="#1c2d3b" d="M 320.558594 151.859375 C 320.707031 151.660156 320.785156 151.421875 320.785156 151.175781 L 320.785156 145.03125 C 320.785156 144.398438 320.273438 143.886719 319.636719 143.886719 L 284.046875 143.886719 C 283.414062 143.886719 282.898438 144.398438 282.898438 145.03125 L 282.898438 151.921875 C 282.898438 152.554688 283.414062 153.070312 284.046875 153.070312 L 308.15625 153.070312 L 281.976562 186.425781 C 281.832031 186.625 281.75 186.867188 281.75 187.113281 L 281.75 193.253906 C 281.75 193.886719 282.265625 194.402344 282.898438 194.402344 L 319.636719 194.402344 C 320.273438 194.402344 320.785156 193.886719 320.785156 193.253906 L 320.785156 186.363281 C 320.785156 185.730469 320.273438 185.214844 319.636719 185.214844 L 295.527344 185.214844 Z M 320.558594 151.859375 " fill-opacity="1" fill-rule="nonzero"/></g><g clip-path="url(#596898d03e)"><path fill="#1c2d3b" d="M 362.597656 151.859375 C 362.742188 151.660156 362.824219 151.421875 362.824219 151.175781 L 362.824219 145.03125 C 362.824219 144.398438 362.308594 143.886719 361.675781 143.886719 L 326.085938 143.886719 C 325.449219 143.886719 324.9375 144.398438 324.9375 145.03125 L 324.9375 151.921875 C 324.9375 152.554688 325.449219 153.070312 326.085938 153.070312 L 350.195312 153.070312 L 324.015625 186.425781 C 323.867188 186.625 323.789062 186.867188 323.789062 187.113281 L 323.789062 193.253906 C 323.789062 193.886719 324.300781 194.402344 324.9375 194.402344 L 361.675781 194.402344 C 362.308594 194.402344 362.824219 193.886719 362.824219 193.253906 L 362.824219 186.363281 C 362.824219 185.730469 362.308594 185.214844 361.675781 185.214844 L 337.566406 185.214844 Z M 362.597656 151.859375 " fill-opacity="1" fill-rule="nonzero"/></g><g clip-path="url(#9021647a98)"><g clip-path="url(#79222d9c20)"><path fill="#1c2d3b" d="M 269.433594 217.554688 L 269.433594 206.683594 L 349.847656 206.683594 L 349.847656 217.554688 Z M 269.433594 217.554688 " fill-opacity="1" fill-rule="nonzero"/></g></g><g clip-path="url(#0806c5daf8)"><g clip-path="url(#17b2beca2e)"><path fill="#00bf63" d="M 267.703125 217.550781 L 267.703125 206.679688 L 292.96875 206.679688 L 292.96875 217.550781 Z M 267.703125 217.550781 " fill-opacity="1" fill-rule="nonzero"/></g></g><g clip-path="url(#0b64ce772f)"><g clip-path="url(#039ad2794a)"><g clip-path="url(#d2c8f305f6)"><path fill="#1c2d3b" d="M 213.980469 177.613281 L 213.550781 178.101562 C 208.605469 183.757812 199.984375 184.335938 194.328125 179.390625 C 188.675781 174.449219 188.097656 165.832031 193.035156 160.175781 C 197.980469 154.527344 206.597656 153.953125 212.25 158.894531 L 212.738281 159.320312 L 220.421875 150.53125 L 219.933594 150.105469 C 209.441406 140.929688 193.433594 141.996094 184.234375 152.5 C 175.070312 163 176.152344 179.007812 186.644531 188.179688 C 197.144531 197.363281 213.160156 196.289062 222.34375 185.789062 L 222.769531 185.300781 L 213.980469 177.613281 " fill-opacity="1" fill-rule="nonzero"/></g></g></g><g fill="#1c2d3b" fill-opacity="1"><g transform="translate(14.248237, 256.557199)"><g><path d="M 0 -11.671875 L 0 -5.84375 C 0 -4.769531 0.265625 -3.789062 0.796875 -2.90625 C 1.328125 -2.03125 2.03125 -1.328125 2.90625 -0.796875 C 3.789062 -0.265625 4.769531 0 5.84375 0 C 6.8125 0 7.703125 -0.21875 8.515625 -0.65625 C 9.335938 -1.09375 10.019531 -1.675781 10.5625 -2.40625 C 11.082031 -1.675781 11.75 -1.09375 12.5625 -0.65625 C 13.382812 -0.21875 14.273438 0 15.234375 0 C 16.316406 0 17.296875 -0.265625 18.171875 -0.796875 C 19.054688 -1.328125 19.765625 -2.03125 20.296875 -2.90625 C 20.828125 -3.789062 21.09375 -4.769531 21.09375 -5.84375 L 21.09375 -11.671875 L 18.8125 -11.671875 L 18.8125 -5.84375 C 18.8125 -5.1875 18.648438 -4.585938 18.328125 -4.046875 C 18.003906 -3.503906 17.570312 -3.070312 17.03125 -2.75 C 16.5 -2.4375 15.898438 -2.28125 15.234375 -2.28125 C 14.578125 -2.28125 13.976562 -2.4375 13.4375 -2.75 C 12.894531 -3.070312 12.460938 -3.503906 12.140625 -4.046875 C 11.828125 -4.585938 11.671875 -5.1875 11.671875 -5.84375 L 11.671875 -11.671875 L 9.421875 -11.671875 L 9.421875 -5.84375 C 9.421875 -5.1875 9.257812 -4.585938 8.9375 -4.046875 C 8.613281 -3.503906 8.179688 -3.070312 7.640625 -2.75 C 7.109375 -2.4375 6.507812 -2.28125 5.84375 -2.28125 C 5.1875 -2.28125 4.585938 -2.4375 4.046875 -2.75 C 3.503906 -3.070312 3.070312 -3.503906 2.75 -4.046875 C 2.4375 -4.585938 2.28125 -5.1875 2.28125 -5.84375 L 2.28125 -11.671875 Z M 0 -11.671875 "/></g></g></g><g fill="#1c2d3b" fill-opacity="1"><g transform="translate(39.508221, 256.557199)"><g><path d="M 0 -18.328125 L 0 0 L 2.28125 0 L 2.28125 -5.84375 C 2.28125 -6.507812 2.4375 -7.109375 2.75 -7.640625 C 3.070312 -8.179688 3.503906 -8.613281 4.046875 -8.9375 C 4.585938 -9.257812 5.1875 -9.421875 5.84375 -9.421875 C 6.507812 -9.421875 7.109375 -9.257812 7.640625 -8.9375 C 8.179688 -8.613281 8.613281 -8.179688 8.9375 -7.640625 C 9.257812 -7.109375 9.421875 -6.507812 9.421875 -5.84375 L 9.421875 0 L 11.671875 0 L 11.671875 -5.84375 C 11.671875 -6.90625 11.410156 -7.878906 10.890625 -8.765625 C 10.367188 -9.660156 9.660156 -10.367188 8.765625 -10.890625 C 7.878906 -11.410156 6.90625 -11.671875 5.84375 -11.671875 C 5.164062 -11.671875 4.519531 -11.566406 3.90625 -11.359375 C 3.300781 -11.148438 2.757812 -10.851562 2.28125 -10.46875 L 2.28125 -18.328125 Z M 0 -18.328125 "/></g></g></g><g fill="#1c2d3b" fill-opacity="1"><g transform="translate(55.348219, 256.557199)"><g><path d="M 5.84375 -11.671875 C 4.882812 -11.671875 3.992188 -11.457031 3.171875 -11.03125 C 2.359375 -10.613281 1.679688 -10.035156 1.140625 -9.296875 C 0.597656 -8.554688 0.25 -7.726562 0.09375 -6.8125 C 0.03125 -6.488281 0 -6.164062 0 -5.84375 C 0 -5.550781 0.0195312 -5.265625 0.0625 -4.984375 C 0.0625 -4.960938 0.0625 -4.953125 0.0625 -4.953125 C 0.0820312 -4.804688 0.113281 -4.664062 0.15625 -4.53125 C 0.351562 -3.664062 0.722656 -2.894531 1.265625 -2.21875 C 1.816406 -1.539062 2.488281 -1 3.28125 -0.59375 C 4.070312 -0.195312 4.925781 0 5.84375 0 C 6.507812 0 7.140625 -0.101562 7.734375 -0.3125 C 8.335938 -0.519531 8.878906 -0.816406 9.359375 -1.203125 L 7.734375 -2.8125 C 7.160156 -2.457031 6.53125 -2.28125 5.84375 -2.28125 C 5.082031 -2.28125 4.398438 -2.488281 3.796875 -2.90625 C 3.203125 -3.332031 2.773438 -3.875 2.515625 -4.53125 L 11.546875 -4.53125 C 11.628906 -4.96875 11.671875 -5.40625 11.671875 -5.84375 C 11.671875 -6.164062 11.648438 -6.488281 11.609375 -6.8125 C 11.453125 -7.726562 11.097656 -8.554688 10.546875 -9.296875 C 9.992188 -10.035156 9.3125 -10.613281 8.5 -11.03125 C 7.695312 -11.457031 6.8125 -11.671875 5.84375 -11.671875 Z M 5.84375 -9.421875 C 6.664062 -9.421875 7.390625 -9.175781 8.015625 -8.6875 C 8.648438 -8.195312 9.066406 -7.570312 9.265625 -6.8125 L 2.40625 -6.8125 C 2.625 -7.570312 3.046875 -8.195312 3.671875 -8.6875 C 4.304688 -9.175781 5.03125 -9.421875 5.84375 -9.421875 Z M 5.84375 -9.421875 "/></g></g></g><g fill="#1c2d3b" fill-opacity="1"><g transform="translate(70.588218, 256.557199)"><g><path d="M 0 -11.671875 L 0 0 L 2.28125 0 L 2.28125 -5.84375 C 2.28125 -6.507812 2.4375 -7.109375 2.75 -7.640625 C 3.070312 -8.179688 3.503906 -8.613281 4.046875 -8.9375 C 4.585938 -9.257812 5.1875 -9.421875 5.84375 -9.421875 C 6.34375 -9.421875 6.828125 -9.3125 7.296875 -9.09375 L 8.96875 -10.765625 C 8.007812 -11.367188 6.96875 -11.671875 5.84375 -11.671875 C 5.164062 -11.671875 4.519531 -11.566406 3.90625 -11.359375 C 3.300781 -11.148438 2.757812 -10.851562 2.28125 -10.46875 L 2.28125 -11.671875 Z M 0 -11.671875 "/></g></g></g><g fill="#1c2d3b" fill-opacity="1"><g transform="translate(82.798216, 256.557199)"><g><path d="M 5.84375 -11.671875 C 4.882812 -11.671875 3.992188 -11.457031 3.171875 -11.03125 C 2.359375 -10.613281 1.679688 -10.035156 1.140625 -9.296875 C 0.597656 -8.554688 0.25 -7.726562 0.09375 -6.8125 C 0.03125 -6.488281 0 -6.164062 0 -5.84375 C 0 -5.550781 0.0195312 -5.265625 0.0625 -4.984375 C 0.0625 -4.960938 0.0625 -4.953125 0.0625 -4.953125 C 0.0820312 -4.804688 0.113281 -4.664062 0.15625 -4.53125 C 0.351562 -3.664062 0.722656 -2.894531 1.265625 -2.21875 C 1.816406 -1.539062 2.488281 -1 3.28125 -0.59375 C 4.070312 -0.195312 4.925781 0 5.84375 0 C 6.507812 0 7.140625 -0.101562 7.734375 -0.3125 C 8.335938 -0.519531 8.878906 -0.816406 9.359375 -1.203125 L 7.734375 -2.8125 C 7.160156 -2.457031 6.53125 -2.28125 5.84375 -2.28125 C 5.082031 -2.28125 4.398438 -2.488281 3.796875 -2.90625 C 3.203125 -3.332031 2.773438 -3.875 2.515625 -4.53125 L 11.546875 -4.53125 C 11.628906 -4.96875 11.671875 -5.40625 11.671875 -5.84375 C 11.671875 -6.164062 11.648438 -6.488281 11.609375 -6.8125 C 11.453125 -7.726562 11.097656 -8.554688 10.546875 -9.296875 C 9.992188 -10.035156 9.3125 -10.613281 8.5 -11.03125 C 7.695312 -11.457031 6.8125 -11.671875 5.84375 -11.671875 Z M 5.84375 -9.421875 C 6.664062 -9.421875 7.390625 -9.175781 8.015625 -8.6875 C 8.648438 -8.195312 9.066406 -7.570312 9.265625 -6.8125 L 2.40625 -6.8125 C 2.625 -7.570312 3.046875 -8.195312 3.671875 -8.6875 C 4.304688 -9.175781 5.03125 -9.421875 5.84375 -9.421875 Z M 5.84375 -9.421875 "/></g></g></g><g fill="#1c2d3b" fill-opacity="1"><g transform="translate(98.038209, 256.557199)"><g/></g></g><g fill="#1c2d3b" fill-opacity="1"><g transform="translate(105.208218, 256.557199)"><g><path d="M 0 0 L 0 -5.84375 C 0 -6.90625 0.265625 -7.878906 0.796875 -8.765625 C 1.328125 -9.660156 2.03125 -10.367188 2.90625 -10.890625 C 3.789062 -11.410156 4.769531 -11.671875 5.84375 -11.671875 C 6.8125 -11.671875 7.703125 -11.453125 8.515625 -11.015625 C 9.335938 -10.585938 10.019531 -10.015625 10.5625 -9.296875 C 11.082031 -10.015625 11.75 -10.585938 12.5625 -11.015625 C 13.382812 -11.453125 14.273438 -11.671875 15.234375 -11.671875 C 16.316406 -11.671875 17.296875 -11.410156 18.171875 -10.890625 C 19.054688 -10.367188 19.765625 -9.660156 20.296875 -8.765625 C 20.828125 -7.878906 21.09375 -6.90625 21.09375 -5.84375 L 21.09375 0 L 18.8125 0 L 18.8125 -5.84375 C 18.8125 -6.507812 18.648438 -7.109375 18.328125 -7.640625 C 18.003906 -8.179688 17.570312 -8.613281 17.03125 -8.9375 C 16.5 -9.257812 15.898438 -9.421875 15.234375 -9.421875 C 14.578125 -9.421875 13.976562 -9.257812 13.4375 -8.9375 C 12.894531 -8.613281 12.460938 -8.179688 12.140625 -7.640625 C 11.828125 -7.109375 11.671875 -6.507812 11.671875 -5.84375 L 11.671875 0 L 9.421875 0 L 9.421875 -5.84375 C 9.421875 -6.507812 9.257812 -7.109375 8.9375 -7.640625 C 8.613281 -8.179688 8.179688 -8.613281 7.640625 -8.9375 C 7.109375 -9.257812 6.507812 -9.421875 5.84375 -9.421875 C 5.1875 -9.421875 4.585938 -9.257812 4.046875 -8.9375 C 3.503906 -8.613281 3.070312 -8.179688 2.75 -7.640625 C 2.4375 -7.109375 2.28125 -6.507812 2.28125 -5.84375 L 2.28125 0 Z M 0 0 "/></g></g></g><g fill="#1c2d3b" fill-opacity="1"><g transform="translate(130.468199, 256.557199)"><g><path d="M 5.84375 -11.671875 C 4.882812 -11.671875 3.992188 -11.457031 3.171875 -11.03125 C 2.359375 -10.613281 1.679688 -10.035156 1.140625 -9.296875 C 0.597656 -8.554688 0.25 -7.726562 0.09375 -6.8125 C 0.03125 -6.488281 0 -6.164062 0 -5.84375 C 0 -5.550781 0.0195312 -5.265625 0.0625 -4.984375 C 0.0625 -4.960938 0.0625 -4.953125 0.0625 -4.953125 C 0.0820312 -4.804688 0.113281 -4.664062 0.15625 -4.53125 C 0.351562 -3.664062 0.722656 -2.894531 1.265625 -2.21875 C 1.816406 -1.539062 2.488281 -1 3.28125 -0.59375 C 4.070312 -0.195312 4.925781 0 5.84375 0 C 6.507812 0 7.140625 -0.101562 7.734375 -0.3125 C 8.335938 -0.519531 8.878906 -0.816406 9.359375 -1.203125 L 7.734375 -2.8125 C 7.160156 -2.457031 6.53125 -2.28125 5.84375 -2.28125 C 5.082031 -2.28125 4.398438 -2.488281 3.796875 -2.90625 C 3.203125 -3.332031 2.773438 -3.875 2.515625 -4.53125 L 11.546875 -4.53125 C 11.628906 -4.96875 11.671875 -5.40625 11.671875 -5.84375 C 11.671875 -6.164062 11.648438 -6.488281 11.609375 -6.8125 C 11.453125 -7.726562 11.097656 -8.554688 10.546875 -9.296875 C 9.992188 -10.035156 9.3125 -10.613281 8.5 -11.03125 C 7.695312 -11.457031 6.8125 -11.671875 5.84375 -11.671875 Z M 5.84375 -9.421875 C 6.664062 -9.421875 7.390625 -9.175781 8.015625 -8.6875 C 8.648438 -8.195312 9.066406 -7.570312 9.265625 -6.8125 L 2.40625 -6.8125 C 2.625 -7.570312 3.046875 -8.195312 3.671875 -8.6875 C 4.304688 -9.175781 5.03125 -9.421875 5.84375 -9.421875 Z M 5.84375 -9.421875 "/></g></g></g><g fill="#1c2d3b" fill-opacity="1"><g transform="translate(145.708192, 256.557199)"><g><path d="M 9.421875 -18.328125 L 9.421875 -10.46875 C 8.921875 -10.851562 8.363281 -11.148438 7.75 -11.359375 C 7.144531 -11.566406 6.507812 -11.671875 5.84375 -11.671875 C 4.769531 -11.671875 3.789062 -11.410156 2.90625 -10.890625 C 2.03125 -10.367188 1.328125 -9.660156 0.796875 -8.765625 C 0.265625 -7.878906 0 -6.90625 0 -5.84375 C 0 -4.769531 0.265625 -3.789062 0.796875 -2.90625 C 1.328125 -2.03125 2.03125 -1.328125 2.90625 -0.796875 C 3.789062 -0.265625 4.769531 0 5.84375 0 C 6.90625 0 7.878906 -0.265625 8.765625 -0.796875 C 9.660156 -1.328125 10.367188 -2.03125 10.890625 -2.90625 C 11.410156 -3.789062 11.671875 -4.769531 11.671875 -5.84375 L 11.671875 -18.328125 Z M 5.84375 -9.421875 C 6.507812 -9.421875 7.109375 -9.257812 7.640625 -8.9375 C 8.179688 -8.613281 8.613281 -8.179688 8.9375 -7.640625 C 9.257812 -7.109375 9.421875 -6.507812 9.421875 -5.84375 C 9.421875 -5.1875 9.257812 -4.585938 8.9375 -4.046875 C 8.613281 -3.503906 8.179688 -3.070312 7.640625 -2.75 C 7.109375 -2.4375 6.507812 -2.28125 5.84375 -2.28125 C 5.1875 -2.28125 4.585938 -2.4375 4.046875 -2.75 C 3.503906 -3.070312 3.070312 -3.503906 2.75 -4.046875 C 2.4375 -4.585938 2.28125 -5.1875 2.28125 -5.84375 C 2.28125 -6.507812 2.4375 -7.109375 2.75 -7.640625 C 3.070312 -8.179688 3.503906 -8.613281 4.046875 -8.9375 C 4.585938 -9.257812 5.1875 -9.421875 5.84375 -9.421875 Z M 5.84375 -9.421875 "/></g></g></g><g fill="#1c2d3b" fill-opacity="1"><g transform="translate(160.948185, 256.557199)"><g><path d="M 1.140625 -15.5625 C 0.816406 -15.5625 0.546875 -15.453125 0.328125 -15.234375 C 0.109375 -15.015625 0 -14.75 0 -14.4375 C 0 -14.113281 0.109375 -13.84375 0.328125 -13.625 C 0.546875 -13.40625 0.816406 -13.296875 1.140625 -13.296875 C 1.460938 -13.296875 1.734375 -13.40625 1.953125 -13.625 C 2.171875 -13.84375 2.28125 -14.113281 2.28125 -14.4375 C 2.28125 -14.75 2.171875 -15.015625 1.953125 -15.234375 C 1.734375 -15.453125 1.460938 -15.5625 1.140625 -15.5625 Z M 0 -11.671875 L 0 0 L 2.28125 0 L 2.28125 -11.671875 Z M 0 -11.671875 "/></g></g></g><g fill="#1c2d3b" fill-opacity="1"><g transform="translate(167.368195, 256.557199)"><g><path d="M 5.546875 -11.671875 C 4.472656 -11.671875 3.492188 -11.410156 2.609375 -10.890625 C 1.734375 -10.367188 1.03125 -9.660156 0.5 -8.765625 C -0.03125 -7.878906 -0.296875 -6.90625 -0.296875 -5.84375 C -0.296875 -4.769531 -0.03125 -3.789062 0.5 -2.90625 C 1.03125 -2.03125 1.734375 -1.328125 2.609375 -0.796875 C 3.492188 -0.265625 4.472656 0 5.546875 0 C 6.222656 0 6.867188 -0.109375 7.484375 -0.328125 C 8.097656 -0.546875 8.65625 -0.859375 9.15625 -1.265625 L 7.53125 -2.875 C 6.925781 -2.476562 6.265625 -2.28125 5.546875 -2.28125 C 4.890625 -2.28125 4.289062 -2.4375 3.75 -2.75 C 3.207031 -3.070312 2.773438 -3.503906 2.453125 -4.046875 C 2.140625 -4.585938 1.984375 -5.1875 1.984375 -5.84375 C 1.984375 -6.507812 2.140625 -7.109375 2.453125 -7.640625 C 2.773438 -8.179688 3.207031 -8.613281 3.75 -8.9375 C 4.289062 -9.257812 4.890625 -9.421875 5.546875 -9.421875 C 6.265625 -9.421875 6.925781 -9.21875 7.53125 -8.8125 L 9.15625 -10.4375 C 8.65625 -10.820312 8.097656 -11.125 7.484375 -11.34375 C 6.867188 -11.5625 6.222656 -11.671875 5.546875 -11.671875 Z M 5.546875 -11.671875 "/></g></g></g><g fill="#1c2d3b" fill-opacity="1"><g transform="translate(180.058192, 256.557199)"><g><path d="M 5.84375 -11.671875 C 4.769531 -11.671875 3.789062 -11.410156 2.90625 -10.890625 C 2.03125 -10.367188 1.328125 -9.660156 0.796875 -8.765625 C 0.265625 -7.878906 0 -6.90625 0 -5.84375 C 0 -4.769531 0.265625 -3.789062 0.796875 -2.90625 C 1.328125 -2.03125 2.03125 -1.328125 2.90625 -0.796875 C 3.789062 -0.265625 4.769531 0 5.84375 0 C 6.507812 0 7.144531 -0.109375 7.75 -0.328125 C 8.363281 -0.546875 8.921875 -0.847656 9.421875 -1.234375 L 9.421875 0 L 11.671875 0 L 11.671875 -5.84375 C 11.671875 -6.90625 11.410156 -7.878906 10.890625 -8.765625 C 10.367188 -9.660156 9.660156 -10.367188 8.765625 -10.890625 C 7.878906 -11.410156 6.90625 -11.671875 5.84375 -11.671875 Z M 5.84375 -9.421875 C 6.507812 -9.421875 7.109375 -9.257812 7.640625 -8.9375 C 8.179688 -8.613281 8.613281 -8.179688 8.9375 -7.640625 C 9.257812 -7.109375 9.421875 -6.507812 9.421875 -5.84375 C 9.421875 -5.1875 9.257812 -4.585938 8.9375 -4.046875 C 8.613281 -3.503906 8.179688 -3.070312 7.640625 -2.75 C 7.109375 -2.4375 6.507812 -2.28125 5.84375 -2.28125 C 5.1875 -2.28125 4.585938 -2.4375 4.046875 -2.75 C 3.503906 -3.070312 3.070312 -3.503906 2.75 -4.046875 C 2.4375 -4.585938 2.28125 -5.1875 2.28125 -5.84375 C 2.28125 -6.507812 2.4375 -7.109375 2.75 -7.640625 C 3.070312 -8.179688 3.503906 -8.613281 4.046875 -8.9375 C 4.585938 -9.257812 5.1875 -9.421875 5.84375 -9.421875 Z M 5.84375 -9.421875 "/></g></g></g><g fill="#1c2d3b" fill-opacity="1"><g transform="translate(195.898188, 256.557199)"><g><path d="M 0 -18.328125 L 2.28125 -18.328125 L 2.28125 0 L 0 0 Z M 0 -18.328125 "/></g></g></g><g fill="#1c2d3b" fill-opacity="1"><g transform="translate(202.318197, 256.557199)"><g/></g></g><g fill="#1c2d3b" fill-opacity="1"><g transform="translate(209.488206, 256.557199)"><g><path d="M 0 0 L 0 -5.84375 C 0 -6.90625 0.265625 -7.878906 0.796875 -8.765625 C 1.328125 -9.660156 2.03125 -10.367188 2.90625 -10.890625 C 3.789062 -11.410156 4.769531 -11.671875 5.84375 -11.671875 C 6.8125 -11.671875 7.703125 -11.453125 8.515625 -11.015625 C 9.335938 -10.585938 10.019531 -10.015625 10.5625 -9.296875 C 11.082031 -10.015625 11.75 -10.585938 12.5625 -11.015625 C 13.382812 -11.453125 14.273438 -11.671875 15.234375 -11.671875 C 16.316406 -11.671875 17.296875 -11.410156 18.171875 -10.890625 C 19.054688 -10.367188 19.765625 -9.660156 20.296875 -8.765625 C 20.828125 -7.878906 21.09375 -6.90625 21.09375 -5.84375 L 21.09375 0 L 18.8125 0 L 18.8125 -5.84375 C 18.8125 -6.507812 18.648438 -7.109375 18.328125 -7.640625 C 18.003906 -8.179688 17.570312 -8.613281 17.03125 -8.9375 C 16.5 -9.257812 15.898438 -9.421875 15.234375 -9.421875 C 14.578125 -9.421875 13.976562 -9.257812 13.4375 -8.9375 C 12.894531 -8.613281 12.460938 -8.179688 12.140625 -7.640625 C 11.828125 -7.109375 11.671875 -6.507812 11.671875 -5.84375 L 11.671875 0 L 9.421875 0 L 9.421875 -5.84375 C 9.421875 -6.507812 9.257812 -7.109375 8.9375 -7.640625 C 8.613281 -8.179688 8.179688 -8.613281 7.640625 -8.9375 C 7.109375 -9.257812 6.507812 -9.421875 5.84375 -9.421875 C 5.1875 -9.421875 4.585938 -9.257812 4.046875 -8.9375 C 3.503906 -8.613281 3.070312 -8.179688 2.75 -7.640625 C 2.4375 -7.109375 2.28125 -6.507812 2.28125 -5.84375 L 2.28125 0 Z M 0 0 "/></g></g></g><g fill="#1c2d3b" fill-opacity="1"><g transform="translate(234.748199, 256.557199)"><g><path d="M 1.140625 -15.5625 C 0.816406 -15.5625 0.546875 -15.453125 0.328125 -15.234375 C 0.109375 -15.015625 0 -14.75 0 -14.4375 C 0 -14.113281 0.109375 -13.84375 0.328125 -13.625 C 0.546875 -13.40625 0.816406 -13.296875 1.140625 -13.296875 C 1.460938 -13.296875 1.734375 -13.40625 1.953125 -13.625 C 2.171875 -13.84375 2.28125 -14.113281 2.28125 -14.4375 C 2.28125 -14.75 2.171875 -15.015625 1.953125 -15.234375 C 1.734375 -15.453125 1.460938 -15.5625 1.140625 -15.5625 Z M 0 -11.671875 L 0 0 L 2.28125 0 L 2.28125 -11.671875 Z M 0 -11.671875 "/></g></g></g><g fill="#1c2d3b" fill-opacity="1"><g transform="translate(241.16822, 256.557199)"><g><path d="M 0 0 L 0 -5.84375 C 0 -6.90625 0.265625 -7.878906 0.796875 -8.765625 C 1.328125 -9.660156 2.03125 -10.367188 2.90625 -10.890625 C 3.789062 -11.410156 4.769531 -11.671875 5.84375 -11.671875 C 6.90625 -11.671875 7.878906 -11.410156 8.765625 -10.890625 C 9.660156 -10.367188 10.367188 -9.660156 10.890625 -8.765625 C 11.410156 -7.878906 11.671875 -6.90625 11.671875 -5.84375 L 11.671875 0 L 9.421875 0 L 9.421875 -5.84375 C 9.421875 -6.507812 9.257812 -7.109375 8.9375 -7.640625 C 8.613281 -8.179688 8.179688 -8.613281 7.640625 -8.9375 C 7.109375 -9.257812 6.507812 -9.421875 5.84375 -9.421875 C 5.1875 -9.421875 4.585938 -9.257812 4.046875 -8.9375 C 3.503906 -8.613281 3.070312 -8.179688 2.75 -7.640625 C 2.4375 -7.109375 2.28125 -6.507812 2.28125 -5.84375 L 2.28125 0 Z M 0 0 "/></g></g></g><g fill="#1c2d3b" fill-opacity="1"><g transform="translate(257.008215, 256.557199)"><g><path d="M 9.421875 -18.328125 L 9.421875 -10.46875 C 8.921875 -10.851562 8.363281 -11.148438 7.75 -11.359375 C 7.144531 -11.566406 6.507812 -11.671875 5.84375 -11.671875 C 4.769531 -11.671875 3.789062 -11.410156 2.90625 -10.890625 C 2.03125 -10.367188 1.328125 -9.660156 0.796875 -8.765625 C 0.265625 -7.878906 0 -6.90625 0 -5.84375 C 0 -4.769531 0.265625 -3.789062 0.796875 -2.90625 C 1.328125 -2.03125 2.03125 -1.328125 2.90625 -0.796875 C 3.789062 -0.265625 4.769531 0 5.84375 0 C 6.90625 0 7.878906 -0.265625 8.765625 -0.796875 C 9.660156 -1.328125 10.367188 -2.03125 10.890625 -2.90625 C 11.410156 -3.789062 11.671875 -4.769531 11.671875 -5.84375 L 11.671875 -18.328125 Z M 5.84375 -9.421875 C 6.507812 -9.421875 7.109375 -9.257812 7.640625 -8.9375 C 8.179688 -8.613281 8.613281 -8.179688 8.9375 -7.640625 C 9.257812 -7.109375 9.421875 -6.507812 9.421875 -5.84375 C 9.421875 -5.1875 9.257812 -4.585938 8.9375 -4.046875 C 8.613281 -3.503906 8.179688 -3.070312 7.640625 -2.75 C 7.109375 -2.4375 6.507812 -2.28125 5.84375 -2.28125 C 5.1875 -2.28125 4.585938 -2.4375 4.046875 -2.75 C 3.503906 -3.070312 3.070312 -3.503906 2.75 -4.046875 C 2.4375 -4.585938 2.28125 -5.1875 2.28125 -5.84375 C 2.28125 -6.507812 2.4375 -7.109375 2.75 -7.640625 C 3.070312 -8.179688 3.503906 -8.613281 4.046875 -8.9375 C 4.585938 -9.257812 5.1875 -9.421875 5.84375 -9.421875 Z M 5.84375 -9.421875 "/></g></g></g><g fill="#1c2d3b" fill-opacity="1"><g transform="translate(272.248219, 256.557199)"><g><path d="M 3.421875 -11.671875 C 2.773438 -11.671875 2.195312 -11.519531 1.6875 -11.21875 C 1.1875 -10.914062 0.78125 -10.503906 0.46875 -9.984375 C 0.15625 -9.460938 0 -8.894531 0 -8.28125 L 0 -8.09375 C 0 -7.476562 0.15625 -6.914062 0.46875 -6.40625 C 0.78125 -5.894531 1.1875 -5.484375 1.6875 -5.171875 C 2.195312 -4.859375 2.773438 -4.703125 3.421875 -4.703125 L 8.28125 -4.703125 C 8.601562 -4.703125 8.875 -4.59375 9.09375 -4.375 C 9.3125 -4.15625 9.421875 -3.882812 9.421875 -3.5625 L 9.421875 -3.421875 C 9.421875 -3.097656 9.3125 -2.828125 9.09375 -2.609375 C 8.875 -2.390625 8.601562 -2.28125 8.28125 -2.28125 L 0 -2.28125 L 0 0 L 8.28125 0 C 8.894531 0 9.460938 -0.15625 9.984375 -0.46875 C 10.503906 -0.78125 10.914062 -1.1875 11.21875 -1.6875 C 11.519531 -2.195312 11.671875 -2.773438 11.671875 -3.421875 L 11.671875 -3.5625 C 11.671875 -4.1875 11.519531 -4.757812 11.21875 -5.28125 C 10.914062 -5.800781 10.503906 -6.210938 9.984375 -6.515625 C 9.460938 -6.828125 8.894531 -6.984375 8.28125 -6.984375 L 3.421875 -6.984375 C 3.097656 -6.984375 2.828125 -7.085938 2.609375 -7.296875 C 2.390625 -7.515625 2.28125 -7.78125 2.28125 -8.09375 L 2.28125 -8.28125 C 2.28125 -8.601562 2.390625 -8.875 2.609375 -9.09375 C 2.828125 -9.3125 3.097656 -9.421875 3.421875 -9.421875 L 11.671875 -9.421875 L 11.671875 -11.671875 Z M 3.421875 -11.671875 "/></g></g></g><g fill="#1c2d3b" fill-opacity="1"><g transform="translate(288.088214, 256.557199)"><g/></g></g><g fill="#1c2d3b" fill-opacity="1"><g transform="translate(295.258235, 256.557199)"><g><path d="M 0 0 L 0 -5.84375 C 0 -6.90625 0.265625 -7.878906 0.796875 -8.765625 C 1.328125 -9.660156 2.03125 -10.367188 2.90625 -10.890625 C 3.789062 -11.410156 4.769531 -11.671875 5.84375 -11.671875 C 6.8125 -11.671875 7.703125 -11.453125 8.515625 -11.015625 C 9.335938 -10.585938 10.019531 -10.015625 10.5625 -9.296875 C 11.082031 -10.015625 11.75 -10.585938 12.5625 -11.015625 C 13.382812 -11.453125 14.273438 -11.671875 15.234375 -11.671875 C 16.316406 -11.671875 17.296875 -11.410156 18.171875 -10.890625 C 19.054688 -10.367188 19.765625 -9.660156 20.296875 -8.765625 C 20.828125 -7.878906 21.09375 -6.90625 21.09375 -5.84375 L 21.09375 0 L 18.8125 0 L 18.8125 -5.84375 C 18.8125 -6.507812 18.648438 -7.109375 18.328125 -7.640625 C 18.003906 -8.179688 17.570312 -8.613281 17.03125 -8.9375 C 16.5 -9.257812 15.898438 -9.421875 15.234375 -9.421875 C 14.578125 -9.421875 13.976562 -9.257812 13.4375 -8.9375 C 12.894531 -8.613281 12.460938 -8.179688 12.140625 -7.640625 C 11.828125 -7.109375 11.671875 -6.507812 11.671875 -5.84375 L 11.671875 0 L 9.421875 0 L 9.421875 -5.84375 C 9.421875 -6.507812 9.257812 -7.109375 8.9375 -7.640625 C 8.613281 -8.179688 8.179688 -8.613281 7.640625 -8.9375 C 7.109375 -9.257812 6.507812 -9.421875 5.84375 -9.421875 C 5.1875 -9.421875 4.585938 -9.257812 4.046875 -8.9375 C 3.503906 -8.613281 3.070312 -8.179688 2.75 -7.640625 C 2.4375 -7.109375 2.28125 -6.507812 2.28125 -5.84375 L 2.28125 0 Z M 0 0 "/></g></g></g><g fill="#1c2d3b" fill-opacity="1"><g transform="translate(320.518228, 256.557199)"><g><path d="M 5.84375 -11.671875 C 4.882812 -11.671875 3.992188 -11.457031 3.171875 -11.03125 C 2.359375 -10.613281 1.679688 -10.035156 1.140625 -9.296875 C 0.597656 -8.554688 0.25 -7.726562 0.09375 -6.8125 C 0.03125 -6.488281 0 -6.164062 0 -5.84375 C 0 -5.550781 0.0195312 -5.265625 0.0625 -4.984375 C 0.0625 -4.960938 0.0625 -4.953125 0.0625 -4.953125 C 0.0820312 -4.804688 0.113281 -4.664062 0.15625 -4.53125 C 0.351562 -3.664062 0.722656 -2.894531 1.265625 -2.21875 C 1.816406 -1.539062 2.488281 -1 3.28125 -0.59375 C 4.070312 -0.195312 4.925781 0 5.84375 0 C 6.507812 0 7.140625 -0.101562 7.734375 -0.3125 C 8.335938 -0.519531 8.878906 -0.816406 9.359375 -1.203125 L 7.734375 -2.8125 C 7.160156 -2.457031 6.53125 -2.28125 5.84375 -2.28125 C 5.082031 -2.28125 4.398438 -2.488281 3.796875 -2.90625 C 3.203125 -3.332031 2.773438 -3.875 2.515625 -4.53125 L 11.546875 -4.53125 C 11.628906 -4.96875 11.671875 -5.40625 11.671875 -5.84375 C 11.671875 -6.164062 11.648438 -6.488281 11.609375 -6.8125 C 11.453125 -7.726562 11.097656 -8.554688 10.546875 -9.296875 C 9.992188 -10.035156 9.3125 -10.613281 8.5 -11.03125 C 7.695312 -11.457031 6.8125 -11.671875 5.84375 -11.671875 Z M 5.84375 -9.421875 C 6.664062 -9.421875 7.390625 -9.175781 8.015625 -8.6875 C 8.648438 -8.195312 9.066406 -7.570312 9.265625 -6.8125 L 2.40625 -6.8125 C 2.625 -7.570312 3.046875 -8.195312 3.671875 -8.6875 C 4.304688 -9.175781 5.03125 -9.421875 5.84375 -9.421875 Z M 5.84375 -9.421875 "/></g></g></g><g fill="#1c2d3b" fill-opacity="1"><g transform="translate(335.758232, 256.557199)"><g><path d="M 5.84375 -11.671875 C 4.882812 -11.671875 3.992188 -11.457031 3.171875 -11.03125 C 2.359375 -10.613281 1.679688 -10.035156 1.140625 -9.296875 C 0.597656 -8.554688 0.25 -7.726562 0.09375 -6.8125 C 0.03125 -6.488281 0 -6.164062 0 -5.84375 C 0 -5.550781 0.0195312 -5.265625 0.0625 -4.984375 C 0.0625 -4.960938 0.0625 -4.953125 0.0625 -4.953125 C 0.0820312 -4.804688 0.113281 -4.664062 0.15625 -4.53125 C 0.351562 -3.664062 0.722656 -2.894531 1.265625 -2.21875 C 1.816406 -1.539062 2.488281 -1 3.28125 -0.59375 C 4.070312 -0.195312 4.925781 0 5.84375 0 C 6.507812 0 7.140625 -0.101562 7.734375 -0.3125 C 8.335938 -0.519531 8.878906 -0.816406 9.359375 -1.203125 L 7.734375 -2.8125 C 7.160156 -2.457031 6.53125 -2.28125 5.84375 -2.28125 C 5.082031 -2.28125 4.398438 -2.488281 3.796875 -2.90625 C 3.203125 -3.332031 2.773438 -3.875 2.515625 -4.53125 L 11.546875 -4.53125 C 11.628906 -4.96875 11.671875 -5.40625 11.671875 -5.84375 C 11.671875 -6.164062 11.648438 -6.488281 11.609375 -6.8125 C 11.453125 -7.726562 11.097656 -8.554688 10.546875 -9.296875 C 9.992188 -10.035156 9.3125 -10.613281 8.5 -11.03125 C 7.695312 -11.457031 6.8125 -11.671875 5.84375 -11.671875 Z M 5.84375 -9.421875 C 6.664062 -9.421875 7.390625 -9.175781 8.015625 -8.6875 C 8.648438 -8.195312 9.066406 -7.570312 9.265625 -6.8125 L 2.40625 -6.8125 C 2.625 -7.570312 3.046875 -8.195312 3.671875 -8.6875 C 4.304688 -9.175781 5.03125 -9.421875 5.84375 -9.421875 Z M 5.84375 -9.421875 "/></g></g></g><g fill="#1c2d3b" fill-opacity="1"><g transform="translate(350.998236, 256.557199)"><g><path d="M 1.984375 -15.5625 L 1.984375 -11.671875 L -0.296875 -11.671875 L -0.296875 -9.421875 L 1.984375 -9.421875 L 1.984375 -5.84375 C 1.984375 -4.769531 2.242188 -3.789062 2.765625 -2.90625 C 3.296875 -2.03125 4 -1.328125 4.875 -0.796875 C 5.757812 -0.265625 6.742188 0 7.828125 0 L 7.828125 -2.28125 C 7.148438 -2.28125 6.546875 -2.4375 6.015625 -2.75 C 5.484375 -3.070312 5.054688 -3.503906 4.734375 -4.046875 C 4.421875 -4.585938 4.265625 -5.1875 4.265625 -5.84375 L 4.265625 -9.421875 L 7.828125 -9.421875 L 7.828125 -11.671875 L 4.265625 -11.671875 L 4.265625 -15.5625 Z M 1.984375 -15.5625 "/></g></g></g><g fill="#1c2d3b" fill-opacity="1"><g transform="translate(225.883173, 193.79947)"><g><path d="M 0 -49.890625 L 0 0 L 9.75 0 L 9.75 -25 C 9.75 -27.820312 10.429688 -30.382812 11.796875 -32.6875 C 13.160156 -35 15 -36.835938 17.3125 -38.203125 C 19.625 -39.578125 22.1875 -40.265625 25 -40.265625 C 27.144531 -40.265625 29.195312 -39.796875 31.15625 -38.859375 L 38.34375 -46.03125 C 34.238281 -48.601562 29.789062 -49.890625 25 -49.890625 C 22.09375 -49.890625 19.335938 -49.4375 16.734375 -48.53125 C 14.128906 -47.632812 11.800781 -46.375 9.75 -44.75 L 9.75 -49.890625 Z M 0 -49.890625 "/></g></g></g></svg>